<?xml version="1.0" standalone="no"?>
<!DOCTYPE svg PUBLIC "-//W3C//DTD SVG 20010904//EN"
 "http://www.w3.org/TR/2001/REC-SVG-20010904/DTD/svg10.dtd">
<svg version="1.0" xmlns="http://www.w3.org/2000/svg"
 width="2000.000000pt" height="2000.000000pt" viewBox="0 0 2000.000000 2000.000000"
 preserveAspectRatio="xMidYMid meet">
<metadata>
Created by potrace 1.13, written by Peter Selinger 2001-2015
</metadata>
<g transform="translate(0.000000,2000.000000) scale(0.100000,-0.100000)"
fill="#000000" stroke="none">
<path d="M9660 18398 c-91 -5 -187 -15 -215 -23 -27 -7 -81 -17 -120 -20 -38
-4 -92 -13 -120 -20 -27 -8 -81 -19 -120 -24 -38 -5 -101 -19 -140 -30 -38
-12 -99 -28 -135 -37 -36 -9 -78 -22 -95 -29 -36 -15 -111 -41 -179 -60 -27
-8 -54 -19 -59 -24 -6 -6 -18 -11 -27 -11 -8 0 -32 -9 -53 -20 -20 -11 -42
-20 -49 -20 -6 0 -30 -8 -52 -19 -23 -10 -68 -31 -101 -45 -33 -15 -67 -31
-75 -36 -8 -5 -46 -25 -85 -45 -38 -19 -88 -46 -110 -60 -22 -13 -53 -31 -70
-39 -16 -9 -39 -21 -50 -28 -11 -7 -36 -22 -55 -33 -32 -19 -81 -50 -195 -124
-22 -14 -42 -28 -45 -31 -3 -3 -36 -27 -73 -55 -61 -44 -215 -170 -286 -233
-80 -71 -271 -267 -271 -279 0 -18 29 -17 36 2 4 8 10 15 15 15 5 0 49 32 96
70 110 89 314 225 418 280 335 174 756 309 1065 340 309 31 353 31 700 1 116
-10 308 -43 385 -67 89 -27 179 -56 230 -75 103 -38 189 -71 204 -79 9 -5 43
-21 76 -36 102 -45 239 -115 256 -130 8 -8 18 -14 21 -14 14 0 201 -130 293
-203 115 -92 390 -364 456 -451 153 -203 165 -221 237 -350 52 -90 150 -282
157 -306 6 -22 23 -62 56 -135 20 -45 52 -147 81 -260 17 -66 35 -135 40 -154
6 -18 14 -61 19 -95 5 -33 15 -106 23 -161 11 -71 16 -179 16 -370 -1 -251 -3
-282 -30 -445 -16 -96 -35 -202 -43 -235 -22 -91 -58 -216 -72 -250 -7 -16
-16 -46 -20 -65 -4 -19 -11 -40 -16 -46 -5 -6 -16 -31 -23 -55 -30 -93 -49
-138 -102 -249 -31 -63 -59 -122 -64 -130 -5 -8 -26 -48 -47 -88 -20 -40 -43
-78 -50 -84 -7 -6 -13 -14 -13 -19 0 -5 -17 -35 -37 -66 -20 -32 -50 -83 -66
-113 -16 -30 -36 -62 -43 -71 -8 -8 -14 -20 -14 -25 0 -5 -16 -34 -36 -64 -19
-29 -42 -67 -50 -84 -8 -17 -23 -44 -34 -61 -25 -38 -55 -91 -74 -131 -8 -17
-22 -36 -30 -44 -9 -7 -16 -16 -16 -21 0 -9 -207 -372 -243 -427 -9 -15 -25
-44 -34 -64 -9 -21 -19 -38 -24 -38 -4 0 -12 -12 -18 -27 -6 -16 -22 -46 -36
-68 -14 -22 -32 -53 -41 -70 -8 -16 -25 -46 -37 -66 -12 -20 -41 -70 -65 -110
-23 -41 -47 -81 -52 -89 -10 -16 -144 -251 -173 -303 -10 -18 -28 -50 -42 -72
-13 -22 -31 -53 -39 -70 -9 -16 -25 -43 -36 -60 -11 -16 -29 -48 -40 -70 -11
-22 -28 -53 -39 -70 -17 -28 -43 -73 -78 -135 -18 -31 -51 -87 -128 -219 -33
-57 -73 -126 -88 -155 -16 -28 -36 -62 -45 -76 -9 -14 -29 -50 -45 -80 -16
-30 -35 -62 -41 -70 -7 -8 -18 -26 -24 -40 -7 -14 -23 -43 -37 -65 -14 -22
-32 -53 -40 -70 -8 -16 -26 -48 -39 -70 -14 -22 -32 -53 -40 -70 -9 -16 -25
-43 -36 -60 -11 -16 -27 -43 -36 -60 -8 -16 -25 -46 -37 -67 -12 -20 -41 -69
-65 -110 -23 -40 -47 -80 -52 -88 -10 -15 -140 -244 -173 -303 -10 -18 -28
-50 -42 -72 -13 -22 -31 -53 -39 -70 -9 -16 -25 -43 -36 -60 -11 -16 -29 -48
-40 -70 -11 -22 -31 -58 -44 -80 -14 -22 -32 -53 -40 -70 -9 -16 -25 -43 -36
-60 -11 -16 -27 -44 -35 -62 -8 -17 -28 -51 -44 -75 -16 -24 -43 -70 -60 -103
-18 -32 -38 -67 -46 -75 -8 -9 -15 -20 -15 -23 0 -4 -33 -64 -72 -133 -40 -69
-89 -154 -108 -189 -19 -35 -39 -67 -43 -72 -5 -4 -15 -21 -23 -38 -8 -16 -25
-48 -38 -70 -14 -22 -32 -53 -40 -70 -9 -16 -24 -43 -35 -60 -10 -16 -28 -47
-40 -67 -50 -90 -62 -110 -83 -145 -12 -21 -28 -49 -36 -63 -7 -14 -24 -42
-35 -62 -12 -21 -85 -147 -161 -280 -77 -134 -143 -245 -147 -248 -4 -3 -14
-21 -23 -40 -9 -19 -27 -53 -40 -75 -14 -22 -32 -53 -40 -70 -9 -16 -25 -43
-36 -60 -11 -16 -29 -48 -40 -70 -11 -22 -28 -53 -39 -70 -25 -42 -62 -105
-78 -136 -7 -15 -20 -32 -28 -39 -8 -7 -15 -21 -15 -31 0 -10 -4 -20 -9 -23
-5 -4 -37 -54 -71 -114 -33 -59 -65 -114 -70 -122 -14 -22 -149 -261 -190
-335 -19 -35 -39 -67 -43 -72 -5 -4 -15 -21 -23 -38 -8 -16 -25 -48 -39 -70
-13 -22 -29 -50 -34 -63 -6 -12 -25 -46 -44 -75 -18 -28 -38 -63 -45 -77 -7
-14 -23 -43 -37 -65 -13 -22 -27 -47 -31 -55 -21 -47 -143 -216 -206 -286 -71
-79 -219 -215 -286 -262 -41 -29 -280 -152 -296 -152 -6 0 -28 -9 -49 -20 -20
-11 -43 -20 -51 -20 -7 0 -33 -8 -57 -19 -24 -10 -78 -22 -119 -25 -41 -4 -93
-13 -115 -21 -57 -20 -324 -20 -391 0 -27 8 -76 18 -109 21 -33 4 -82 15 -108
25 -26 11 -56 19 -67 19 -11 0 -34 9 -52 20 -18 11 -42 20 -53 20 -11 0 -31 8
-45 17 -13 9 -60 36 -105 58 -95 49 -180 103 -215 137 -14 13 -44 36 -68 52
-85 58 -319 356 -338 432 -3 13 -12 28 -20 35 -8 6 -14 17 -14 23 0 6 -12 34
-25 61 -14 28 -25 57 -25 65 0 9 -5 21 -10 26 -15 15 -48 135 -65 234 -8 47
-20 110 -26 140 -15 75 -5 330 15 394 9 27 16 67 16 88 0 21 6 51 14 66 7 15
16 50 20 79 4 28 13 64 21 80 8 15 15 42 15 60 0 35 35 113 57 126 7 4 13 21
13 37 0 16 7 33 16 38 16 9 27 26 64 97 12 22 32 58 45 80 14 22 29 49 34 61
5 11 23 41 40 66 17 26 38 62 46 81 7 18 21 39 29 47 9 7 16 17 16 22 0 5 9
21 20 35 11 14 20 34 20 44 0 11 4 19 10 19 5 0 17 15 25 33 8 17 26 50 40 72
13 22 32 54 40 70 9 17 27 48 40 70 13 22 31 54 40 70 9 17 27 48 40 70 14 22
32 54 41 70 27 51 49 88 78 134 16 25 35 60 42 78 8 18 19 33 24 33 6 0 10 5
10 10 0 9 64 124 127 229 35 57 61 104 78 136 8 17 26 48 40 70 14 22 32 54
41 70 8 17 26 48 39 70 14 22 30 51 37 65 7 14 26 45 43 70 17 25 41 66 54 92
12 26 32 62 44 80 12 18 33 53 46 78 14 25 32 56 41 70 28 44 40 64 56 95 8
17 26 48 40 70 13 22 31 54 40 70 8 17 25 46 37 67 12 20 50 85 85 145 35 59
67 115 72 123 5 8 35 60 67 115 32 55 63 109 70 120 7 11 21 38 33 60 11 22
29 54 40 70 11 17 26 44 35 60 9 17 27 48 40 70 14 22 31 54 39 70 8 17 18 34
23 38 4 5 24 37 43 72 31 56 151 263 219 379 13 23 37 66 54 96 16 30 36 62
43 70 7 8 18 26 24 40 6 14 22 43 35 65 13 22 33 56 43 75 21 38 42 76 75 132
12 20 49 83 81 140 33 57 63 105 67 108 4 3 14 21 23 40 9 19 22 44 29 55 7
11 32 55 57 98 25 43 57 99 73 125 15 26 32 56 38 67 5 11 21 38 34 60 14 22
31 54 39 71 8 17 22 36 30 44 9 7 16 16 16 21 0 5 33 66 73 135 39 69 85 149
101 177 15 29 34 59 41 67 8 8 19 26 25 40 6 14 22 43 35 65 13 22 33 56 43
75 22 39 44 78 75 132 12 20 51 86 87 148 36 62 75 128 87 148 12 21 29 51 37
67 32 62 78 140 91 155 7 8 20 31 29 50 9 19 25 49 36 65 11 17 27 44 36 60 8
17 26 48 39 70 14 22 32 54 42 72 15 27 124 214 153 263 61 104 87 149 98 170
7 14 23 43 36 65 14 22 32 54 40 70 9 17 25 44 36 60 11 17 26 44 34 60 8 17
18 34 23 38 8 8 67 110 99 172 8 17 25 46 37 67 12 20 51 86 87 148 36 62 74
127 85 146 11 19 35 62 53 95 99 182 226 346 364 470 84 75 180 149 193 149 2
0 19 10 37 23 31 20 141 76 233 117 22 10 58 22 80 28 22 5 54 14 70 20 29 10
71 21 162 43 26 6 141 9 285 7 246 -3 265 -6 393 -50 17 -5 58 -18 92 -28 35
-9 68 -22 75 -28 7 -5 28 -13 45 -17 18 -3 35 -11 39 -16 3 -5 20 -16 37 -24
32 -16 40 -20 112 -65 68 -41 197 -142 254 -197 53 -52 100 -88 106 -81 11 12
-97 353 -135 427 -5 9 -29 60 -54 115 -59 125 -113 219 -225 391 -55 85 -230
294 -326 390 -206 205 -484 404 -753 539 -146 73 -496 196 -558 196 -9 0 -37
7 -63 15 -189 59 -651 85 -901 50 -188 -26 -244 -35 -275 -45 -16 -6 -87 -24
-157 -40 -70 -17 -140 -38 -155 -45 -16 -8 -31 -15 -35 -15 -23 0 -258 -100
-347 -147 -414 -219 -733 -499 -956 -838 -51 -77 -60 -92 -85 -140 -11 -22
-31 -58 -44 -80 -14 -22 -32 -53 -40 -70 -9 -16 -25 -43 -36 -60 -11 -16 -27
-43 -36 -60 -8 -16 -26 -48 -39 -70 -13 -22 -33 -56 -43 -75 -21 -38 -42 -74
-75 -132 -12 -20 -46 -78 -75 -130 -29 -51 -57 -100 -62 -108 -5 -8 -19 -31
-30 -50 -11 -19 -25 -42 -30 -50 -5 -8 -33 -57 -62 -108 -29 -52 -63 -110 -75
-130 -36 -62 -48 -84 -88 -157 -20 -38 -43 -77 -49 -85 -7 -8 -18 -26 -24 -40
-7 -14 -21 -38 -32 -55 -11 -16 -27 -43 -36 -60 -8 -16 -26 -48 -40 -70 -13
-22 -31 -53 -40 -70 -8 -16 -26 -48 -40 -70 -13 -22 -31 -53 -40 -70 -8 -16
-25 -47 -37 -67 -43 -72 -124 -213 -130 -228 -4 -8 -21 -35 -37 -60 -16 -25
-34 -55 -40 -68 -5 -12 -24 -46 -43 -75 -18 -28 -38 -63 -45 -77 -7 -14 -22
-42 -35 -62 -12 -21 -35 -61 -51 -90 -15 -29 -34 -60 -41 -68 -8 -8 -19 -26
-25 -40 -6 -14 -22 -43 -35 -65 -14 -22 -32 -53 -40 -70 -8 -16 -26 -48 -40
-70 -14 -22 -31 -53 -39 -70 -8 -16 -18 -34 -23 -38 -8 -8 -67 -110 -99 -172
-8 -16 -25 -46 -37 -67 -36 -59 -151 -257 -167 -286 -8 -15 -42 -74 -75 -131
-73 -125 -110 -189 -125 -216 -16 -31 -55 -97 -78 -135 -12 -19 -29 -48 -37
-65 -8 -16 -26 -48 -40 -70 -14 -22 -32 -53 -41 -70 -8 -16 -26 -48 -39 -70
-14 -22 -30 -51 -37 -65 -7 -14 -23 -40 -35 -58 -12 -18 -31 -52 -43 -75 -12
-23 -32 -59 -44 -79 -11 -20 -45 -79 -74 -130 -29 -51 -57 -100 -62 -108 -5
-8 -35 -59 -67 -113 -32 -54 -68 -117 -81 -140 -12 -23 -31 -55 -42 -72 -10
-16 -33 -57 -50 -90 -18 -33 -38 -67 -45 -75 -8 -8 -19 -26 -25 -40 -6 -14
-22 -43 -35 -65 -13 -22 -38 -67 -55 -100 -18 -32 -40 -70 -51 -83 -10 -14
-19 -30 -19 -37 0 -7 -6 -17 -13 -23 -6 -6 -27 -39 -46 -74 -18 -35 -44 -81
-57 -103 -13 -22 -29 -51 -36 -65 -6 -14 -17 -32 -24 -40 -7 -8 -27 -43 -46
-76 -29 -55 -279 -490 -335 -582 -12 -21 -29 -50 -37 -67 -32 -62 -91 -164
-99 -172 -5 -4 -15 -21 -23 -38 -8 -16 -25 -48 -38 -70 -13 -22 -34 -59 -46
-82 -12 -23 -31 -57 -43 -75 -12 -18 -28 -44 -35 -58 -7 -14 -23 -43 -37 -65
-13 -22 -31 -53 -40 -70 -27 -51 -41 -74 -57 -92 -9 -10 -19 -29 -23 -43 -4
-14 -13 -31 -19 -39 -14 -17 -82 -138 -97 -171 -5 -13 -14 -27 -18 -30 -5 -3
-17 -21 -27 -42 -11 -20 -46 -82 -79 -138 -93 -157 -99 -168 -155 -275 -28
-55 -58 -107 -66 -116 -8 -8 -14 -22 -14 -30 0 -8 -18 -48 -40 -89 -22 -41
-40 -79 -40 -84 0 -10 -31 -80 -61 -138 -10 -20 -19 -45 -19 -55 0 -10 -9 -33
-20 -51 -11 -18 -20 -40 -20 -50 -1 -9 -9 -35 -20 -57 -11 -22 -20 -51 -20
-65 0 -14 -9 -45 -20 -69 -11 -24 -20 -53 -20 -65 0 -11 -7 -34 -16 -51 -9
-16 -20 -60 -25 -97 -5 -38 -15 -81 -24 -97 -8 -17 -15 -48 -15 -69 0 -22 -8
-66 -19 -98 -10 -34 -21 -107 -24 -175 -4 -64 -13 -131 -19 -150 -10 -25 -13
-138 -13 -434 0 -348 2 -406 17 -450 10 -29 20 -103 24 -175 3 -71 12 -133 19
-145 7 -11 15 -47 18 -81 3 -33 12 -75 21 -93 9 -17 20 -61 23 -96 4 -42 13
-73 24 -87 12 -13 19 -37 19 -63 0 -29 6 -47 20 -60 15 -13 20 -31 20 -66 0
-26 5 -51 10 -54 6 -3 10 1 10 10 0 9 4 14 9 11 5 -3 14 1 20 8 9 10 9 16 1
21 -6 4 -10 15 -8 25 2 11 -1 19 -5 19 -18 0 -37 32 -35 58 1 15 -4 38 -11 51
-6 12 -11 30 -9 40 2 10 -3 16 -10 14 -9 -2 -13 6 -11 25 1 16 -1 38 -5 51 -4
13 -9 48 -10 79 -2 30 -8 58 -15 62 -8 5 -12 36 -12 87 0 43 -1 90 -3 104 -8
54 -19 90 -27 90 -15 0 -10 62 6 81 14 15 14 18 0 32 -21 22 -20 103 2 125 16
16 15 17 -1 20 -14 3 -17 16 -16 85 0 45 -2 94 -6 109 -9 38 2 76 24 81 16 4
16 5 0 6 -14 1 -18 10 -18 45 0 25 5 46 12 48 7 3 10 29 9 77 -1 44 3 78 10
87 7 9 11 58 10 146 -1 82 2 128 8 119 17 -27 30 0 28 61 -1 41 3 63 11 66 8
2 12 27 12 72 0 38 4 71 9 74 4 3 8 25 8 48 0 23 5 44 12 46 6 2 12 18 12 35
l1 32 8 -30 c8 -32 13 -25 10 12 -1 12 4 32 11 45 7 13 11 42 10 66 -1 24 3
42 9 42 5 0 10 9 10 20 0 11 4 20 10 20 12 0 34 78 31 113 -2 18 2 27 12 27 9
0 12 9 9 30 -3 22 0 30 11 30 16 0 31 48 27 92 -1 20 3 28 14 28 9 0 16 -7 16
-16 0 -8 4 -13 9 -10 5 3 7 15 4 26 -4 14 -1 20 8 18 10 -2 13 5 11 25 -2 15
1 33 6 40 9 12 12 30 12 73 0 12 7 27 14 33 8 7 12 21 8 34 -5 21 -5 21 12 4
21 -20 36 -15 29 11 -2 10 2 24 10 31 8 6 13 21 10 31 -4 14 0 20 10 20 15 0
30 28 31 60 2 22 39 100 48 100 5 0 8 8 8 18 0 11 12 24 26 30 14 7 22 17 19
22 -3 6 -2 10 4 10 5 0 12 18 16 41 4 22 13 43 21 46 8 3 14 11 14 19 0 8 5
14 10 14 6 0 10 8 10 18 0 11 12 24 26 30 14 7 22 17 19 22 -3 6 -1 10 4 10 6
0 11 9 11 20 0 11 5 20 10 20 6 0 10 9 10 20 0 11 5 20 10 20 6 0 10 9 10 20
0 11 5 20 10 20 6 0 10 8 10 18 0 11 12 24 26 30 14 7 22 17 19 22 -3 6 -1 10
4 10 6 0 11 7 11 16 0 9 8 22 17 29 9 7 18 23 20 36 6 44 67 157 91 168 12 6
21 14 20 18 -5 20 38 93 54 93 10 0 18 6 18 12 0 29 86 187 108 197 12 6 22
14 21 18 -3 21 15 52 37 62 13 6 24 14 23 18 -3 21 15 52 37 62 13 6 23 14 22
18 -6 19 79 173 100 182 12 6 21 14 20 18 -4 19 38 93 59 102 13 6 22 14 21
18 -2 12 14 46 29 61 7 8 10 18 7 23 -8 14 21 69 51 98 14 13 25 29 25 36 0 7
13 23 30 36 16 13 30 29 30 35 0 21 32 74 56 93 13 10 24 23 24 29 0 14 43 96
53 100 4 2 7 12 7 23 0 12 7 19 20 19 11 0 20 6 20 13 0 22 31 78 46 84 8 3
14 10 14 16 0 29 87 186 108 196 12 6 22 14 21 18 -3 21 15 52 37 62 13 6 23
14 22 18 -6 19 79 173 100 182 13 6 20 16 17 22 -10 15 21 75 50 97 14 11 25
27 25 35 0 8 13 25 30 38 16 13 30 28 30 34 0 20 73 157 86 162 8 3 14 10 14
16 0 28 46 107 63 107 9 0 17 6 17 12 0 7 19 52 43 100 29 60 48 88 60 88 9 0
17 7 17 15 0 17 18 52 38 73 7 8 21 32 30 53 10 24 23 39 34 39 10 0 18 6 18
14 0 16 62 140 73 144 4 2 7 12 7 23 0 12 7 19 20 19 13 0 20 7 20 20 0 11 5
20 10 20 6 0 10 9 10 20 0 11 8 28 18 38 9 9 38 59 62 109 25 51 52 95 61 98
8 3 21 20 29 39 7 19 24 39 37 45 13 6 21 16 18 22 -9 13 22 79 40 85 7 3 34
47 59 97 25 51 55 100 66 110 11 9 23 30 26 46 4 17 16 33 30 40 13 6 23 14
22 18 -6 19 79 173 100 182 13 6 20 16 17 21 -3 6 -2 10 3 10 5 0 12 12 15 28
3 15 15 38 27 52 12 14 29 42 38 63 9 20 20 37 24 37 5 0 8 9 8 20 0 11 5 20
10 20 6 0 10 8 10 18 0 9 13 30 30 45 17 16 30 34 30 41 0 7 11 23 25 36 13
12 24 25 23 29 -1 3 7 25 18 49 12 26 25 42 36 42 10 0 18 6 18 14 0 16 62
140 73 144 4 2 7 12 7 23 0 10 7 19 15 19 9 0 18 12 22 30 3 17 18 41 34 55
16 13 29 31 29 39 0 9 5 16 10 16 6 0 10 6 10 13 0 21 43 100 73 136 15 18 27
38 27 45 0 26 26 66 43 66 10 0 17 8 17 20 0 11 5 20 10 20 6 0 10 9 10 20 0
11 5 20 10 20 6 0 10 9 10 20 0 11 5 20 10 20 6 0 10 9 10 20 0 11 5 20 10 20
6 0 10 9 10 20 0 11 6 20 13 20 7 0 23 20 35 45 12 25 29 48 37 51 8 4 15 14
15 24 0 10 14 30 30 43 17 14 30 30 30 34 0 15 25 63 33 63 4 0 7 9 7 20 0 11
5 20 10 20 6 0 10 7 10 15 0 25 23 65 37 65 7 0 12 3 11 8 -4 15 37 92 52 97
8 3 26 30 40 60 14 30 28 55 31 55 4 0 9 12 12 28 3 15 17 41 31 57 14 17 26
36 26 43 0 6 5 12 10 12 6 0 10 9 10 20 0 13 7 20 20 20 11 0 20 6 20 13 0 21
27 72 49 91 17 15 26 34 62 123 8 17 24 37 37 42 13 6 20 16 17 21 -3 6 -1 10
4 10 6 0 11 6 11 13 0 26 25 66 48 77 13 5 20 15 17 20 -3 6 -1 10 4 10 6 0
11 9 11 20 0 11 5 20 10 20 6 0 10 9 10 20 0 11 5 20 10 20 6 0 10 7 10 15 0
24 22 65 35 65 7 0 18 14 25 31 7 17 19 37 27 45 13 13 47 70 95 162 12 23 26
42 30 42 4 0 8 9 8 20 0 13 7 20 20 20 11 0 20 6 20 13 0 24 25 67 43 73 9 3
17 12 17 20 0 8 5 14 10 14 6 0 10 8 10 18 0 11 11 24 24 30 13 6 27 20 31 31
3 12 11 21 16 21 5 0 9 7 9 15 0 16 39 77 53 83 4 2 7 12 7 22 0 10 12 23 29
30 18 7 31 21 33 33 2 12 15 28 31 35 15 7 27 20 27 27 0 8 9 20 20 27 11 7
20 20 20 29 0 9 13 27 30 40 16 13 30 32 30 42 0 13 6 17 22 15 14 -2 23 2 23
10 0 8 8 19 18 26 9 7 17 20 17 27 0 8 10 21 22 29 12 8 41 32 63 53 23 20 47
37 52 37 6 0 42 32 80 70 39 39 75 70 81 70 5 0 32 23 60 50 38 38 51 46 54
34 2 -13 11 -9 40 19 20 21 41 37 48 37 7 0 21 11 32 25 22 28 82 60 97 51 5
-4 20 4 33 17 13 13 43 30 68 37 25 8 47 17 50 20 3 3 26 16 53 29 26 13 47
27 47 30 0 12 61 32 89 30 15 -2 35 1 42 7 28 20 67 36 76 31 5 -3 15 -2 23 3
8 5 21 5 31 -1 13 -6 22 -4 34 7 8 9 22 13 30 10 8 -3 21 1 29 9 17 17 56 20
56 5 0 -5 7 -10 15 -10 8 0 15 5 15 11 0 6 13 9 29 7 16 -1 35 3 44 10 8 7 34
12 58 10 26 -1 44 2 47 10 5 15 143 17 158 2 6 -6 58 -12 115 -13 84 -2 111
-6 134 -21 22 -14 44 -19 87 -17 43 2 58 -1 58 -11 0 -9 13 -12 50 -10 32 3
50 0 50 -7 0 -6 14 -11 30 -11 17 0 30 -4 30 -10 0 -5 9 -10 20 -10 11 0 20
-6 20 -13 0 -9 10 -12 30 -9 18 3 30 0 30 -7 0 -6 9 -11 20 -11 11 0 20 -4 20
-10 0 -5 9 -10 20 -10 11 0 20 -4 20 -10 0 -5 7 -10 16 -10 18 0 44 -23 44
-39 0 -6 6 -8 14 -5 16 6 146 -117 146 -139 0 -7 9 -19 20 -27 12 -8 20 -26
20 -42 0 -15 5 -28 11 -28 7 0 10 -12 7 -30 -3 -18 1 -35 9 -41 7 -6 13 -20
13 -29 0 -10 6 -21 13 -23 10 -4 10 -6 0 -6 -7 -1 -13 -10 -13 -21 0 -11 -4
-20 -9 -20 -5 0 -13 -9 -16 -20 -4 -11 -18 -34 -32 -50 -16 -20 -19 -28 -9
-24 9 3 16 10 16 15 0 5 7 9 15 9 12 0 9 -7 -10 -26 -14 -14 -32 -23 -40 -20
-8 3 -15 1 -15 -5 0 -18 -30 -41 -45 -35 -8 3 -15 1 -15 -5 0 -18 -30 -41 -45
-35 -9 3 -19 -3 -25 -14 -8 -14 -8 -20 0 -20 6 0 4 -7 -5 -16 -8 -9 -22 -14
-29 -11 -18 7 -56 -25 -56 -48 0 -12 -6 -16 -19 -12 -13 3 -30 -6 -51 -26 -29
-29 -192 -117 -216 -117 -6 0 -17 -13 -23 -28 -8 -18 -25 -34 -46 -42 -19 -8
-37 -22 -41 -32 -3 -10 -14 -18 -24 -18 -10 0 -20 -3 -22 -7 -5 -13 -66 -53
-80 -53 -7 0 -19 -9 -26 -20 -7 -11 -21 -20 -32 -20 -13 0 -20 -7 -20 -18 0
-21 -19 -42 -38 -42 -17 0 -42 -25 -42 -43 0 -16 -41 -57 -57 -57 -16 0 -81
-65 -102 -103 -10 -17 -26 -34 -37 -36 -25 -5 -54 -39 -47 -57 6 -15 -19 -44
-39 -44 -17 0 -41 -37 -32 -51 3 -5 -19 -35 -50 -65 -31 -31 -56 -60 -56 -65
0 -6 -11 -21 -25 -35 -14 -14 -25 -29 -25 -35 0 -5 -13 -23 -29 -39 -18 -20
-27 -38 -24 -50 3 -12 -3 -23 -16 -32 -12 -7 -21 -21 -21 -31 0 -10 -4 -15
-10 -12 -5 3 -10 -1 -10 -9 0 -9 -9 -21 -20 -28 -11 -7 -25 -30 -31 -50 -5
-21 -14 -38 -19 -38 -6 0 -10 -8 -10 -18 0 -10 -11 -29 -25 -42 -14 -13 -25
-31 -25 -41 0 -9 -13 -31 -30 -49 -16 -18 -27 -36 -24 -42 9 -14 -22 -73 -51
-94 -14 -10 -25 -26 -25 -35 0 -9 -7 -22 -15 -29 -8 -7 -15 -19 -15 -26 0 -21
-35 -81 -64 -111 -20 -19 -23 -29 -15 -39 8 -10 5 -16 -10 -26 -12 -7 -21 -21
-21 -30 0 -10 -9 -23 -20 -30 -11 -7 -20 -20 -20 -29 0 -9 -6 -22 -14 -29 -8
-6 -12 -18 -9 -26 3 -9 -7 -28 -26 -46 -17 -17 -31 -41 -31 -54 0 -13 -4 -24
-10 -24 -5 0 -10 -9 -10 -20 0 -11 -9 -25 -20 -32 -11 -7 -20 -21 -20 -30 0
-10 -9 -23 -20 -30 -11 -7 -20 -19 -20 -26 0 -7 -7 -20 -15 -28 -8 -8 -12 -21
-8 -30 3 -9 -5 -27 -19 -42 -14 -15 -28 -39 -32 -54 -3 -16 -11 -28 -16 -28
-6 0 -10 -8 -10 -19 0 -10 -6 -24 -14 -30 -8 -7 -12 -20 -9 -31 3 -12 -3 -23
-16 -32 -12 -7 -21 -21 -21 -30 0 -10 -9 -23 -20 -30 -11 -7 -20 -20 -20 -29
0 -8 -11 -25 -24 -36 -16 -14 -23 -28 -19 -42 3 -13 -2 -24 -16 -33 -12 -7
-21 -19 -21 -26 0 -7 -6 -20 -14 -28 -8 -7 -12 -22 -9 -33 3 -13 -2 -24 -16
-33 -12 -7 -21 -21 -21 -30 0 -10 -9 -23 -20 -30 -11 -7 -20 -20 -20 -29 0 -8
-12 -26 -27 -39 -24 -21 -26 -25 -10 -28 16 -3 15 -7 -10 -31 -16 -15 -35 -47
-42 -71 -8 -25 -23 -53 -34 -62 -10 -10 -17 -25 -14 -33 4 -8 0 -21 -8 -29 -8
-8 -15 -22 -15 -30 0 -9 -9 -21 -20 -28 -11 -7 -20 -19 -20 -27 0 -8 -14 -27
-31 -43 -24 -23 -28 -32 -19 -43 9 -11 7 -17 -9 -27 -12 -7 -21 -21 -21 -30 0
-10 -9 -23 -20 -30 -22 -14 -27 -38 -7 -38 6 -1 2 -9 -10 -19 -13 -11 -23 -26
-23 -35 0 -9 -9 -21 -20 -28 -11 -7 -20 -20 -20 -29 0 -8 -14 -28 -30 -44 -17
-17 -26 -33 -21 -38 11 -11 -10 -57 -27 -57 -7 0 -10 -5 -7 -11 9 -13 -22 -79
-41 -86 -8 -3 -14 -14 -14 -24 0 -10 -9 -24 -20 -31 -11 -7 -20 -20 -20 -29 0
-9 -6 -22 -14 -28 -8 -7 -12 -20 -9 -31 3 -12 -3 -23 -16 -32 -12 -7 -21 -20
-21 -29 0 -9 -6 -22 -14 -29 -8 -6 -12 -18 -10 -25 3 -8 -6 -27 -20 -42 -14
-15 -26 -35 -26 -45 0 -9 -7 -23 -15 -32 -8 -8 -15 -22 -15 -30 0 -9 -9 -21
-20 -28 -11 -7 -20 -20 -20 -30 0 -9 -8 -23 -18 -30 -10 -7 -24 -33 -31 -58
-8 -25 -23 -53 -34 -62 -10 -10 -17 -25 -14 -33 4 -8 0 -21 -8 -29 -8 -8 -15
-21 -15 -29 0 -9 -13 -27 -30 -40 -16 -14 -30 -32 -30 -41 0 -8 -8 -21 -18
-28 -12 -8 -19 -26 -20 -46 0 -24 -10 -42 -31 -63 -33 -31 -39 -49 -18 -49 6
-1 2 -9 -10 -19 -13 -11 -23 -26 -23 -35 0 -9 -9 -21 -20 -28 -11 -7 -20 -20
-20 -30 0 -9 -8 -23 -17 -30 -23 -16 -53 -55 -35 -44 30 18 -1 -49 -42 -90
-19 -20 -23 -30 -16 -40 8 -9 5 -16 -12 -28 -16 -12 -22 -24 -20 -47 2 -24 -5
-38 -28 -60 -16 -16 -30 -36 -30 -44 0 -8 -9 -20 -20 -27 -11 -7 -20 -20 -20
-29 0 -9 -7 -22 -15 -29 -8 -7 -15 -21 -15 -31 0 -9 -7 -24 -15 -33 -8 -8 -15
-21 -15 -29 0 -8 -6 -20 -14 -26 -8 -7 -12 -20 -9 -31 3 -12 -3 -23 -16 -32
-12 -7 -21 -20 -21 -30 0 -9 -13 -27 -28 -40 -17 -14 -34 -44 -43 -72 -8 -27
-22 -54 -31 -60 -10 -6 -18 -17 -18 -24 0 -7 -6 -20 -14 -28 -8 -7 -12 -22 -9
-33 3 -12 -3 -24 -18 -34 -18 -13 -20 -19 -10 -31 10 -12 9 -17 -8 -28 -12 -7
-21 -21 -21 -30 0 -10 -9 -23 -20 -30 -11 -7 -20 -21 -20 -30 0 -10 -9 -23
-20 -30 -11 -7 -20 -19 -20 -26 0 -8 -9 -26 -21 -40 -11 -15 -16 -28 -10 -30
6 -2 0 -15 -14 -30 -13 -14 -21 -30 -18 -35 6 -10 -14 -54 -39 -81 -10 -11
-18 -24 -18 -29 0 -5 -15 -24 -34 -43 -24 -24 -32 -40 -29 -54 3 -11 0 -20 -6
-20 -6 0 -11 -8 -11 -19 0 -10 -7 -24 -15 -31 -8 -7 -15 -21 -15 -31 0 -9 -7
-24 -15 -33 -8 -8 -15 -21 -15 -29 0 -8 -6 -20 -14 -26 -8 -7 -12 -20 -9 -31
3 -12 -3 -23 -16 -32 -12 -7 -21 -21 -21 -30 0 -10 -9 -23 -20 -30 -11 -7 -20
-20 -20 -30 0 -9 -10 -24 -21 -32 -13 -9 -19 -21 -16 -30 3 -9 0 -22 -8 -30
-8 -8 -15 -22 -15 -30 0 -9 -9 -21 -20 -28 -22 -14 -27 -38 -7 -38 6 -1 2 -9
-10 -19 -13 -11 -23 -26 -23 -35 0 -9 -9 -21 -20 -28 -11 -7 -20 -20 -20 -30
0 -9 -3 -18 -7 -20 -5 -2 -19 -16 -33 -32 -14 -16 -19 -26 -12 -22 30 17 5
-38 -40 -88 -16 -18 -24 -34 -18 -40 9 -9 -3 -37 -32 -70 -10 -11 -18 -24 -18
-29 0 -5 -15 -24 -34 -43 -25 -25 -32 -39 -28 -59 3 -18 -2 -31 -18 -45 -18
-16 -20 -22 -11 -34 10 -12 9 -17 -8 -28 -12 -7 -21 -19 -21 -27 0 -7 -10 -22
-21 -32 -18 -15 -19 -22 -10 -33 10 -12 9 -17 -8 -28 -12 -7 -21 -21 -21 -30
0 -10 -4 -18 -8 -18 -5 0 -15 -12 -23 -27 -8 -16 -26 -41 -41 -58 -15 -16 -24
-33 -19 -38 9 -9 -9 -57 -21 -57 -4 0 -12 -18 -18 -40 -6 -22 -15 -40 -20 -40
-6 0 -10 -9 -10 -20 0 -11 -9 -25 -20 -32 -11 -7 -20 -20 -20 -30 0 -9 -8 -23
-18 -30 -9 -7 -23 -31 -30 -53 -8 -22 -22 -59 -33 -82 -10 -24 -19 -49 -19
-57 0 -8 -10 -22 -22 -30 -17 -12 -22 -24 -20 -51 2 -19 -2 -35 -7 -35 -5 0
-16 -16 -26 -36 -9 -19 -23 -38 -31 -41 -8 -3 -14 -11 -14 -17 0 -7 -9 -31
-20 -54 -11 -22 -20 -46 -20 -52 0 -13 -22 -53 -35 -62 -6 -5 -6 -11 2 -19 12
-12 -18 -81 -49 -110 -10 -9 -18 -23 -18 -31 0 -9 -6 -21 -14 -27 -8 -7 -12
-20 -9 -30 3 -13 -1 -20 -13 -23 -17 -3 -17 -5 -3 -18 13 -12 14 -19 5 -35 -6
-11 -14 -22 -18 -25 -4 -3 -7 -14 -7 -25 -1 -48 -4 -62 -17 -92 -8 -18 -19
-35 -24 -38 -5 -3 -7 -12 -3 -21 3 -8 -1 -22 -10 -32 -8 -9 -13 -26 -10 -37 7
-34 2 -99 -8 -106 -6 -3 -13 -26 -16 -50 -3 -24 -14 -55 -24 -68 -11 -13 -19
-33 -19 -45 0 -12 -9 -38 -20 -59 -11 -20 -20 -44 -20 -53 0 -8 -8 -34 -19
-57 -10 -23 -22 -62 -26 -87 -4 -25 -11 -49 -15 -55 -9 -12 -25 -78 -46 -190
-8 -44 -20 -98 -25 -120 -16 -58 -27 -166 -39 -372 -9 -149 -8 -216 5 -375 24
-288 24 -289 40 -343 7 -27 19 -72 25 -100 40 -176 87 -330 135 -440 8 -16 35
-79 61 -140 26 -60 56 -121 66 -134 10 -13 18 -27 18 -31 0 -29 140 -251 259
-410 75 -100 308 -348 396 -421 153 -126 202 -164 283 -218 51 -33 97 -61 101
-61 5 0 19 -8 32 -18 19 -15 121 -72 239 -133 115 -59 379 -159 467 -175 21
-4 52 -13 70 -21 18 -7 46 -13 62 -13 17 0 48 -6 68 -14 21 -8 76 -19 123 -24
367 -46 506 -51 668 -28 53 8 147 17 207 21 61 3 133 12 160 19 28 8 106 28
175 44 69 17 157 43 195 57 39 14 85 31 104 37 19 5 51 19 70 29 20 10 39 19
44 19 7 0 246 117 292 144 11 6 67 40 124 76 56 36 117 74 135 85 38 23 74 52
194 154 48 40 95 78 105 85 33 20 248 268 332 381 75 102 164 244 212 340 43
86 57 111 77 140 25 36 142 238 162 280 8 17 25 48 39 70 13 22 29 49 34 60 6
11 22 38 36 60 14 22 32 56 41 75 9 19 19 37 23 40 4 3 61 99 126 213 66 114
130 225 142 245 12 20 29 51 38 67 28 53 55 99 75 130 11 17 29 48 40 70 11
22 31 58 45 80 14 22 30 49 35 60 5 11 21 38 35 60 14 22 32 56 41 75 9 19 22
42 29 50 7 8 26 40 42 70 17 30 39 69 49 87 10 17 56 96 102 175 46 78 87 150
92 158 5 8 42 73 82 143 40 71 83 145 95 165 34 59 54 95 75 132 10 19 30 53
43 75 13 22 31 54 39 70 9 17 25 44 36 60 11 17 29 48 40 70 11 22 31 58 44
80 14 22 32 54 40 70 9 17 25 44 36 60 11 17 27 44 36 60 29 56 134 236 194
335 5 8 33 57 62 108 29 52 63 110 75 130 12 20 29 51 37 67 32 62 91 164 99
172 5 4 15 22 23 38 8 17 25 48 38 70 14 22 32 54 40 70 9 17 25 44 36 60 11
17 28 48 39 71 10 23 31 50 45 62 27 21 60 66 84 112 7 14 23 43 36 65 31 52
54 92 78 135 10 19 30 53 43 75 13 22 31 54 39 70 9 17 24 44 35 60 24 40 60
102 83 145 10 19 30 53 43 75 13 22 29 49 35 60 6 11 21 36 33 57 12 20 51 86
87 148 36 62 75 128 87 148 12 21 29 51 37 67 32 62 79 141 97 164 11 13 19
29 19 35 0 6 18 37 40 69 22 31 40 61 40 66 0 4 9 16 20 26 11 10 20 22 20 28
0 5 10 22 23 38 12 15 40 53 62 84 78 108 123 164 176 220 30 31 55 60 57 65
2 4 56 56 120 115 152 140 172 157 202 177 14 10 48 33 75 53 28 20 88 61 135
92 47 30 97 64 112 74 15 11 33 19 39 19 7 0 20 6 28 14 16 13 93 53 166 86
22 10 61 27 86 39 25 12 54 21 64 21 10 0 36 8 59 19 45 21 153 53 231 69 28
6 68 15 90 21 46 11 134 28 220 42 133 20 775 9 814 -15 5 -4 44 -11 87 -16
42 -5 82 -14 89 -20 7 -6 45 -14 86 -20 41 -5 91 -16 111 -24 21 -9 49 -16 64
-16 14 0 40 -7 57 -15 18 -8 55 -21 82 -29 28 -7 74 -23 103 -35 83 -34 144
-58 192 -77 25 -10 52 -24 61 -31 8 -7 21 -13 29 -13 17 0 200 -92 338 -171
147 -83 132 -74 247 -151 229 -154 408 -299 618 -498 110 -105 135 -125 145
-116 9 10 -16 72 -56 134 -52 80 -59 92 -82 132 -11 19 -32 53 -45 75 -14 22
-30 49 -35 60 -5 11 -21 38 -35 60 -13 22 -34 56 -45 75 -11 19 -32 53 -45 75
-14 22 -29 50 -35 62 -5 11 -14 24 -20 28 -5 3 -17 21 -25 38 -8 18 -25 49
-38 69 -18 30 -95 159 -150 253 -6 11 -21 36 -33 55 -12 19 -35 58 -51 86 -28
50 -127 221 -170 292 -12 20 -30 51 -38 67 -9 17 -27 48 -41 70 -13 22 -31 54
-40 70 -8 17 -26 48 -39 70 -34 56 -62 105 -80 140 -8 17 -26 48 -40 70 -14
22 -30 51 -37 65 -6 14 -17 32 -24 40 -6 8 -25 40 -41 70 -16 30 -36 66 -45
80 -9 14 -29 48 -45 77 -34 61 -189 329 -221 381 -12 20 -27 46 -33 57 -5 11
-21 38 -34 60 -14 22 -31 51 -37 65 -7 14 -29 50 -49 80 -19 30 -39 62 -43 70
-7 16 -20 37 -101 172 -27 46 -55 94 -62 108 -7 14 -22 39 -33 55 -11 17 -27
44 -37 62 -25 45 -134 230 -160 272 -13 20 -32 52 -43 71 -11 19 -32 53 -45
75 -14 22 -42 69 -62 103 -21 35 -46 76 -55 90 -10 15 -27 43 -38 62 -11 19
-38 62 -60 95 -22 33 -46 71 -53 85 -6 14 -28 50 -48 80 -19 30 -38 62 -42 70
-4 8 -20 35 -37 60 -16 25 -43 70 -61 100 -18 30 -36 57 -39 60 -4 3 -15 19
-24 35 -9 17 -25 44 -36 60 -11 17 -29 46 -40 65 -11 19 -26 44 -33 54 -6 10
-40 62 -75 115 -34 53 -67 103 -72 111 -8 12 -78 119 -145 222 -5 9 -41 62
-80 119 -38 57 -74 111 -80 120 -5 9 -32 50 -60 90 -27 41 -52 78 -54 83 -5
11 -29 47 -141 202 -47 66 -93 130 -102 144 -10 14 -38 52 -62 85 -25 33 -67
92 -93 130 -110 160 -473 633 -502 655 -3 3 -37 43 -76 90 -38 47 -76 92 -85
100 -9 8 -66 71 -126 140 -117 134 -233 253 -329 339 -33 30 -80 72 -105 94
-213 191 -380 294 -765 471 -137 64 -353 149 -410 162 -16 4 -39 13 -50 20
-11 8 -32 14 -47 14 -15 0 -50 9 -78 20 -28 11 -60 20 -71 20 -11 0 -45 9 -76
20 -32 11 -71 20 -88 20 -17 0 -65 9 -106 19 -41 10 -103 22 -137 26 -35 3
-76 11 -90 17 -37 15 -421 37 -622 36 -91 -1 -239 -5 -330 -10z m1810 -1038
c0 -5 23 -10 50 -10 28 0 50 -4 50 -10 0 -5 18 -10 40 -10 22 0 40 -4 40 -10
0 -5 9 -10 20 -10 11 0 20 -6 20 -13 0 -9 10 -12 30 -9 18 3 30 0 30 -7 0 -6
9 -11 20 -11 11 0 20 -6 20 -14 0 -9 7 -12 20 -9 11 3 20 0 20 -6 0 -6 9 -11
20 -11 11 0 20 -6 20 -14 0 -9 7 -12 20 -9 14 4 20 0 20 -11 0 -9 6 -13 14
-10 8 3 25 -4 37 -15 13 -12 29 -21 36 -21 7 0 13 -7 13 -15 0 -8 6 -12 14 -9
8 3 25 -4 37 -15 13 -12 29 -21 36 -21 7 0 13 -4 13 -8 0 -5 12 -15 28 -23 15
-7 39 -26 55 -41 15 -16 32 -28 38 -28 6 0 28 -18 50 -40 22 -22 45 -40 51
-40 6 0 51 -40 100 -90 48 -49 93 -90 98 -90 13 0 160 -146 160 -159 0 -6 50
-59 110 -119 61 -59 110 -114 110 -121 0 -8 23 -34 50 -59 28 -25 50 -52 50
-59 0 -8 27 -40 60 -72 33 -32 60 -64 60 -70 0 -6 18 -29 41 -50 22 -22 39
-45 38 -53 -3 -29 2 -38 22 -38 17 0 20 -5 16 -20 -4 -15 7 -33 39 -64 24 -24
44 -50 44 -57 0 -8 14 -25 30 -38 17 -13 30 -30 30 -38 0 -8 14 -26 30 -40 17
-13 30 -31 30 -40 0 -8 14 -26 30 -40 17 -13 30 -31 30 -40 0 -8 14 -26 30
-40 17 -13 30 -31 30 -40 0 -8 14 -26 30 -40 17 -13 30 -32 30 -41 0 -10 9
-23 20 -30 11 -7 20 -19 20 -28 0 -8 14 -27 30 -41 17 -13 30 -32 30 -41 0
-10 9 -23 20 -30 11 -7 20 -19 20 -28 0 -8 14 -27 30 -41 17 -13 30 -32 30
-41 0 -10 9 -23 20 -30 11 -7 20 -20 20 -30 0 -9 9 -23 20 -30 11 -7 20 -19
20 -27 0 -9 9 -26 20 -38 48 -53 80 -95 80 -105 0 -5 7 -15 15 -22 21 -17 48
-77 41 -88 -8 -14 28 -52 50 -53 11 0 13 -3 7 -6 -19 -7 -16 -27 7 -41 11 -7
20 -20 20 -30 0 -9 9 -23 20 -30 11 -7 20 -20 20 -30 0 -9 9 -23 20 -30 11 -7
20 -20 20 -30 0 -9 9 -23 20 -30 11 -7 20 -20 20 -30 0 -9 9 -23 20 -30 11 -7
20 -21 20 -31 0 -10 6 -21 14 -24 8 -3 22 -22 31 -41 10 -20 21 -36 26 -36 5
0 9 -6 9 -13 0 -7 9 -23 20 -35 11 -12 20 -28 20 -37 0 -8 5 -15 10 -15 6 0
10 -8 10 -18 0 -9 9 -23 20 -30 11 -7 20 -20 20 -30 0 -9 9 -23 20 -30 11 -7
20 -21 20 -31 0 -10 6 -21 14 -24 14 -6 46 -61 46 -81 0 -6 9 -17 20 -24 11
-7 20 -20 20 -30 0 -9 9 -23 21 -30 14 -9 19 -20 16 -33 -3 -12 0 -19 10 -19
8 0 13 -8 12 -17 -3 -35 1 -43 24 -44 12 0 16 -3 10 -6 -19 -7 -16 -27 7 -41
11 -7 20 -21 20 -31 0 -11 3 -21 8 -23 13 -6 52 -67 52 -82 0 -8 3 -16 8 -18
12 -5 52 -66 52 -80 0 -7 9 -19 20 -26 11 -7 20 -21 20 -32 0 -11 4 -20 8 -20
5 0 14 -10 21 -22 6 -13 20 -36 30 -53 11 -16 20 -37 20 -45 1 -8 10 -21 21
-28 11 -7 20 -21 20 -32 0 -11 5 -20 10 -20 6 0 10 -9 10 -19 0 -10 6 -21 14
-24 15 -6 46 -62 46 -83 0 -7 3 -14 8 -16 13 -6 52 -67 52 -83 0 -8 5 -15 10
-15 6 0 10 -9 10 -20 0 -11 4 -20 9 -20 5 0 14 -13 21 -30 7 -16 17 -30 22
-30 5 0 8 -16 6 -36 -1 -19 2 -38 8 -42 10 -7 194 -371 194 -385 0 -4 9 -27
21 -52 11 -24 18 -49 14 -55 -3 -5 1 -10 11 -10 12 0 15 -7 12 -30 -3 -21 0
-30 9 -30 11 0 14 -11 12 -40 -2 -22 2 -45 9 -52 7 -7 12 -34 12 -60 0 -26 5
-48 10 -48 6 0 10 -16 10 -35 0 -19 -4 -35 -10 -35 -5 0 -10 -18 -10 -40 0
-28 -4 -40 -14 -40 -9 0 -12 -7 -9 -19 3 -14 -2 -20 -25 -24 -17 -4 -46 -22
-66 -42 -19 -19 -42 -35 -51 -35 -8 0 -15 -5 -15 -11 0 -7 -12 -10 -30 -7 -21
3 -30 0 -30 -10 0 -10 -9 -13 -30 -10 -21 3 -30 0 -30 -9 0 -11 -11 -14 -39
-12 -21 2 -46 -3 -54 -9 -9 -8 -36 -12 -64 -11 -26 1 -58 -3 -71 -10 -13 -7
-51 -11 -88 -10 -39 1 -69 -2 -76 -9 -15 -15 -98 -16 -98 -2 0 13 -37 13 -45
0 -4 -6 -34 -10 -69 -9 -34 1 -72 -3 -84 -10 -12 -6 -39 -11 -60 -10 -20 2
-47 -3 -60 -10 -13 -7 -38 -11 -57 -10 -18 2 -40 -3 -48 -10 -9 -7 -26 -11
-39 -10 -13 2 -38 -3 -57 -11 -26 -10 -36 -11 -39 -2 -5 15 -32 16 -32 2 0 -6
-15 -10 -32 -9 -18 2 -43 -3 -56 -10 -13 -7 -30 -10 -37 -7 -7 2 -19 -2 -26
-10 -7 -8 -19 -13 -28 -11 -9 2 -29 -3 -44 -10 -16 -8 -35 -12 -43 -9 -7 3
-20 -2 -29 -10 -9 -9 -22 -13 -30 -10 -8 3 -20 0 -27 -7 -14 -14 -101 -42
-163 -52 -22 -4 -42 -10 -45 -14 -3 -3 -25 -16 -50 -27 -83 -38 -255 -124
-285 -143 -16 -10 -37 -16 -46 -14 -8 3 -21 -3 -28 -11 -8 -9 -22 -16 -31 -16
-10 0 -20 -3 -22 -7 -5 -13 -66 -53 -80 -53 -7 0 -19 -9 -26 -20 -7 -11 -20
-20 -30 -20 -9 0 -23 -9 -30 -20 -7 -11 -19 -20 -28 -20 -8 0 -27 -13 -41 -30
-13 -16 -30 -30 -37 -30 -7 0 -34 -20 -59 -45 -26 -25 -50 -45 -55 -45 -4 0
-48 -41 -97 -91 -50 -49 -102 -96 -116 -104 -33 -18 -219 -205 -219 -220 0
-14 -43 -52 -76 -67 -13 -6 -24 -18 -24 -26 0 -13 -27 -50 -80 -109 -11 -12
-20 -27 -20 -34 0 -10 -30 -50 -79 -105 -11 -12 -21 -30 -23 -40 -2 -11 -13
-23 -26 -29 -12 -5 -25 -18 -28 -27 -3 -10 -10 -18 -15 -18 -5 0 -9 -9 -9 -20
0 -11 -9 -25 -20 -32 -11 -7 -20 -19 -20 -26 0 -14 -40 -75 -52 -80 -5 -2 -8
-10 -8 -18 0 -18 -35 -69 -72 -105 -16 -15 -28 -32 -28 -38 0 -13 -41 -74 -52
-79 -5 -2 -8 -11 -9 -20 0 -9 -9 -30 -20 -47 -10 -16 -24 -40 -30 -52 -7 -13
-16 -23 -21 -23 -4 0 -8 -6 -8 -13 0 -24 -29 -74 -55 -93 -14 -10 -25 -27 -25
-36 0 -10 -9 -23 -20 -30 -11 -7 -20 -21 -20 -30 0 -10 -4 -18 -10 -18 -5 0
-10 -8 -11 -17 0 -10 -9 -31 -20 -48 -10 -16 -24 -40 -30 -52 -7 -13 -16 -23
-21 -23 -4 0 -8 -6 -8 -14 0 -21 -24 -63 -53 -92 -15 -15 -27 -33 -27 -40 0
-8 -9 -19 -20 -26 -11 -7 -20 -18 -20 -24 0 -21 -80 -164 -92 -164 -5 0 -8 -8
-9 -17 0 -10 -9 -31 -20 -48 -10 -16 -24 -40 -30 -52 -7 -13 -16 -23 -21 -23
-4 0 -8 -9 -8 -20 0 -11 -4 -20 -10 -20 -5 0 -10 -7 -10 -15 0 -16 -39 -77
-52 -83 -5 -2 -8 -12 -8 -23 0 -10 -4 -19 -10 -19 -5 0 -10 -8 -11 -17 0 -10
-9 -31 -20 -48 -10 -16 -24 -40 -30 -52 -6 -12 -20 -24 -30 -26 -11 -3 -19
-12 -19 -21 0 -9 -4 -16 -10 -16 -5 0 -10 -6 -10 -13 0 -24 -79 -167 -92 -167
-5 0 -8 -6 -8 -13 0 -30 -69 -147 -112 -190 -15 -15 -28 -34 -28 -42 0 -8 -4
-15 -10 -15 -5 0 -10 -6 -10 -13 0 -24 -79 -167 -92 -167 -5 0 -8 -7 -8 -16 0
-9 -13 -30 -30 -46 -16 -15 -30 -32 -30 -37 0 -4 -18 -41 -40 -82 -21 -41 -49
-93 -62 -116 -12 -24 -26 -43 -30 -43 -4 0 -8 -9 -8 -20 0 -11 -4 -20 -10 -20
-5 0 -10 -8 -10 -18 0 -11 -12 -24 -26 -30 -14 -7 -22 -17 -19 -22 3 -6 1 -10
-4 -10 -6 0 -11 -6 -11 -13 0 -24 -79 -167 -92 -167 -5 0 -8 -6 -8 -13 0 -13
-49 -113 -86 -174 -10 -18 -24 -33 -31 -33 -6 0 -15 -9 -18 -20 -3 -11 -11
-20 -16 -20 -5 0 -9 -9 -9 -20 0 -11 -4 -20 -10 -20 -5 0 -10 -6 -10 -13 0
-24 -79 -167 -92 -167 -5 0 -8 -6 -8 -13 0 -25 -99 -207 -112 -207 -5 0 -8 -9
-8 -20 0 -11 -4 -20 -10 -20 -5 0 -10 -6 -10 -13 0 -27 -54 -119 -74 -126 -11
-5 -20 -11 -19 -14 3 -10 -31 -67 -39 -67 -5 0 -8 -9 -8 -20 0 -11 -4 -20 -10
-20 -5 0 -10 -9 -10 -20 0 -11 -4 -20 -10 -20 -5 0 -10 -6 -10 -13 0 -24 -79
-167 -92 -167 -5 0 -8 -9 -8 -20 0 -12 -7 -20 -16 -20 -9 0 -18 -9 -21 -20 -3
-11 -9 -20 -14 -20 -5 0 -9 -6 -9 -13 0 -12 -34 -80 -101 -202 -12 -22 -35
-52 -50 -66 -16 -15 -29 -34 -29 -43 0 -9 -4 -16 -10 -16 -5 0 -10 -8 -11 -17
0 -10 -14 -40 -30 -68 -15 -27 -38 -69 -51 -92 -12 -24 -26 -43 -30 -43 -4 0
-8 -5 -8 -12 0 -24 -45 -108 -58 -108 -7 0 -16 -8 -19 -17 -8 -23 -46 -77 -55
-81 -5 -2 -8 -12 -8 -23 0 -10 -4 -19 -10 -19 -5 0 -10 -6 -10 -13 0 -22 -52
-118 -66 -124 -8 -3 -14 -14 -14 -24 0 -10 -4 -19 -10 -19 -5 0 -10 -8 -10
-19 0 -10 -6 -24 -13 -30 -8 -6 -22 -29 -32 -51 -10 -22 -22 -40 -27 -40 -4 0
-8 -6 -8 -13 0 -22 -31 -78 -46 -84 -8 -3 -14 -13 -14 -22 0 -9 -10 -21 -22
-26 -13 -6 -23 -14 -24 -20 -2 -24 -25 -66 -39 -71 -8 -4 -15 -12 -15 -19 0
-20 -31 -76 -46 -82 -8 -3 -14 -11 -14 -19 0 -17 -59 -104 -71 -104 -5 0 -9
-9 -9 -19 0 -11 -8 -26 -19 -33 -10 -7 -20 -22 -22 -32 -2 -11 -17 -27 -34
-36 -16 -9 -30 -22 -30 -29 0 -7 -8 -18 -17 -25 -10 -7 -18 -20 -18 -29 0 -8
-13 -27 -30 -40 -16 -14 -30 -32 -30 -40 0 -9 -13 -27 -30 -40 -16 -14 -30
-32 -30 -40 0 -15 -54 -68 -90 -87 -32 -17 -70 -56 -70 -72 0 -18 -163 -178
-181 -178 -8 0 -20 -9 -27 -20 -7 -11 -19 -20 -27 -20 -8 0 -28 -13 -43 -30
-16 -16 -35 -30 -43 -30 -8 0 -25 -14 -38 -30 -13 -17 -31 -30 -40 -30 -9 0
-22 -9 -29 -20 -7 -11 -19 -20 -28 -20 -8 0 -27 -13 -41 -30 -13 -16 -31 -30
-40 -30 -8 0 -21 -6 -29 -14 -7 -8 -23 -12 -34 -9 -11 3 -20 0 -20 -6 0 -6 -9
-11 -19 -11 -10 0 -21 -6 -24 -14 -5 -13 -61 -46 -78 -46 -5 0 -46 -18 -91
-39 -102 -49 -177 -74 -196 -66 -8 3 -20 1 -26 -3 -26 -21 -79 -30 -198 -33
-43 -1 -78 -5 -78 -9 0 -4 62 -10 138 -14 278 -14 319 -21 271 -46 -15 -9
-102 -14 -264 -18 -238 -5 -243 -4 -288 18 -39 20 -51 22 -72 12 -39 -18 -60
-15 -94 14 -28 24 -33 24 -65 13 -31 -11 -38 -11 -55 5 -12 11 -40 20 -68 21
-26 2 -70 9 -98 15 -27 6 -68 14 -90 17 -22 3 -47 11 -55 18 -8 8 -37 19 -65
26 -27 6 -57 18 -66 25 -8 8 -25 14 -36 14 -11 0 -26 7 -33 15 -6 8 -35 21
-63 30 -29 9 -65 25 -82 35 -16 11 -62 35 -101 55 -40 19 -77 42 -84 50 -7 8
-18 15 -24 15 -7 0 -26 10 -43 23 -17 12 -41 29 -53 37 -13 8 -35 25 -50 38
-15 12 -31 22 -35 22 -12 0 -167 130 -230 194 -175 175 -252 268 -283 339
l-12 29 30 -22 c16 -12 30 -26 30 -31 0 -5 5 -9 10 -9 6 0 43 -31 83 -69 98
-95 171 -141 165 -106 0 6 -10 8 -21 7 -19 -4 -19 -2 -4 12 8 9 21 16 27 16
16 0 60 47 60 65 0 10 10 15 30 15 17 0 30 5 30 11 0 7 15 10 40 7 28 -2 40 0
40 9 0 9 18 13 60 13 36 0 60 4 60 11 0 6 19 9 49 8 29 -2 56 3 65 10 8 7 30
11 49 10 19 -2 42 3 50 10 9 7 32 11 51 10 25 -3 42 3 61 19 30 27 45 28 45 5
0 -13 4 -11 13 7 8 16 22 25 38 26 13 1 35 6 48 13 12 7 29 10 36 7 8 -3 21 2
30 10 9 9 22 14 30 11 7 -3 19 1 26 9 7 9 21 13 31 11 10 -3 25 1 32 9 8 8 19
14 25 14 6 0 30 9 54 19 23 11 52 22 65 26 12 3 22 13 22 21 0 8 9 14 19 14
11 0 21 3 23 8 4 10 128 72 144 72 8 0 14 5 14 10 0 6 9 10 19 10 10 0 21 6
24 14 6 14 61 46 81 46 6 0 17 9 24 20 7 11 19 20 27 20 7 0 20 12 27 27 7 15
22 29 32 31 20 4 26 9 117 91 31 28 62 51 70 52 8 0 32 23 54 51 22 28 82 94
133 146 50 53 92 101 92 106 1 6 21 31 46 56 25 25 47 57 51 73 3 15 18 38 34
52 16 13 29 30 29 38 0 9 14 27 30 40 17 14 30 33 30 41 0 9 9 21 20 28 11 7
20 21 20 30 0 10 9 23 20 30 11 7 20 21 20 30 0 10 9 23 20 30 11 7 20 21 20
30 0 10 9 23 20 30 11 7 20 23 20 36 0 21 36 83 53 90 4 2 7 12 7 23 0 10 9
24 20 31 11 7 20 19 20 26 0 14 40 75 53 80 4 2 7 12 7 23 0 10 9 24 20 31 11
7 20 21 20 30 0 10 9 23 20 30 11 7 20 18 20 24 0 20 32 75 46 81 8 3 14 11
14 18 0 20 31 76 46 82 8 3 14 12 14 20 0 8 6 21 14 29 8 7 12 23 9 34 -3 11
0 20 6 20 6 0 11 9 11 20 0 11 9 25 20 32 11 7 20 21 20 30 0 10 9 23 20 30
11 7 20 18 20 24 0 20 32 75 46 81 8 3 14 11 14 19 0 16 18 51 37 71 6 7 9 21
6 32 -3 13 2 24 16 33 12 7 21 21 21 30 0 10 5 18 10 18 6 0 10 9 10 20 0 11
9 25 20 32 11 7 20 21 20 30 0 10 9 23 20 30 11 7 20 18 20 24 0 19 26 64 49
85 12 11 19 25 15 30 -7 12 15 69 27 69 5 0 9 9 9 20 0 11 9 25 20 32 11 7 20
18 20 24 0 20 32 75 46 81 8 3 14 12 14 19 0 12 32 67 50 84 3 3 11 23 18 45
22 66 43 106 58 112 8 3 14 12 14 19 0 15 39 76 53 82 4 2 7 10 7 18 0 15 39
76 53 82 4 2 7 12 7 23 0 10 9 24 20 31 11 7 20 18 20 24 0 20 32 75 46 81 8
3 14 11 14 18 0 20 31 76 46 82 8 3 14 12 14 21 0 9 10 26 22 39 13 13 21 35
20 53 0 20 6 35 19 43 10 6 19 17 19 23 0 20 32 75 46 81 8 3 14 11 14 18 0
20 31 76 46 82 8 3 14 12 14 19 0 14 31 63 57 92 7 7 10 18 7 25 -3 8 1 24 9
38 33 60 53 89 60 89 4 0 7 9 7 20 0 11 9 25 20 32 11 7 20 18 20 24 0 20 32
75 46 81 8 3 14 11 14 19 0 16 17 49 39 76 7 10 11 24 7 33 -3 9 2 20 14 27
11 7 20 19 20 26 0 14 40 75 53 80 4 2 7 12 7 23 0 10 9 24 20 31 11 7 20 18
20 24 0 20 32 75 46 81 8 3 14 14 14 24 0 10 5 19 11 19 6 0 9 9 6 20 -3 11 1
27 9 34 8 8 14 22 14 30 0 9 9 21 20 28 11 7 20 19 20 26 0 14 40 75 53 80 4
2 7 10 7 18 0 15 39 76 53 82 4 2 7 12 7 22 0 9 6 23 14 30 8 6 12 18 10 25
-5 13 32 76 49 83 4 2 7 10 7 18 0 15 39 76 53 82 4 2 7 12 7 23 0 10 9 24 20
31 11 7 20 18 20 24 0 20 32 75 46 81 8 3 14 11 14 18 0 20 31 76 46 82 8 3
14 11 14 18 0 20 31 76 46 82 8 3 14 11 14 18 0 20 31 76 46 82 8 3 14 13 14
23 0 10 7 23 15 30 8 7 12 16 9 22 -8 12 24 78 42 85 8 3 14 11 14 18 0 20 31
76 46 82 8 3 14 12 14 19 0 15 39 76 53 82 4 2 7 12 7 22 0 9 7 23 15 30 8 7
15 18 15 26 0 19 32 84 42 84 4 0 8 9 8 20 0 11 9 25 20 32 11 7 20 18 20 24
0 20 32 75 46 81 8 3 14 12 14 20 0 8 9 26 20 40 11 14 25 43 30 64 6 22 15
39 20 39 6 0 10 7 10 15 0 16 39 77 53 83 4 2 7 10 7 18 0 15 39 76 53 82 4 2
7 12 7 22 0 10 8 25 18 32 10 7 25 34 32 61 8 26 18 47 22 47 4 0 8 9 8 20 0
11 9 25 20 32 11 7 20 19 20 26 0 14 40 75 53 80 4 2 7 10 7 18 0 15 39 76 53
82 4 2 7 12 7 22 0 10 10 26 22 34 17 12 19 19 11 27 -9 9 -6 19 10 43 12 17
25 32 30 34 4 2 7 12 7 23 0 10 9 24 20 31 11 7 20 18 20 24 0 20 32 75 46 81
8 3 14 11 14 18 0 21 30 74 48 84 13 8 14 12 5 22 -9 9 -7 19 10 43 12 17 25
33 30 34 4 2 7 10 7 18 0 15 39 76 53 82 4 2 7 10 7 18 0 15 39 76 53 82 4 2
7 12 7 23 0 10 9 24 20 31 11 7 20 21 20 30 0 10 5 18 10 18 6 0 10 7 10 15 0
16 39 77 53 83 4 2 7 9 7 16 0 21 31 77 46 83 8 3 14 14 14 24 0 10 5 19 10
19 6 0 10 7 10 15 0 8 11 30 24 50 14 20 23 42 20 49 -3 8 6 30 20 50 14 21
28 46 31 57 4 10 11 19 16 19 5 0 9 8 10 18 0 9 9 31 19 47 11 17 34 57 51 89
17 33 37 65 44 73 7 7 11 22 8 33 -5 20 112 271 129 278 5 2 8 12 8 23 0 10 4
19 9 19 5 0 15 32 21 70 6 39 15 70 19 70 4 0 13 21 21 48 7 26 20 53 27 60 7
8 10 18 7 23 -3 6 4 30 15 54 12 25 21 50 21 56 0 6 6 17 14 25 8 7 12 22 9
33 -3 10 0 22 6 25 7 5 7 13 -1 26 -10 15 -9 22 4 37 8 10 13 23 11 30 -2 6 2
24 10 40 8 15 12 33 10 40 -2 6 3 25 11 41 8 16 13 32 9 35 -3 4 0 21 8 39 7
18 12 43 11 55 -2 12 2 32 9 45 7 13 12 40 10 60 -1 21 3 47 9 58 6 12 12 99
14 213 6 402 1 583 -14 602 -6 7 -10 40 -9 72 1 32 -3 69 -10 82 -7 12 -10 29
-7 36 3 8 0 20 -7 27 -18 19 -41 94 -34 112 3 8 -1 20 -9 27 -8 7 -14 25 -12
39 1 15 -3 35 -11 43 -7 9 -11 27 -9 40 1 13 -3 32 -11 40 -7 9 -11 23 -8 31
3 8 -1 20 -9 27 -8 7 -14 25 -12 39 1 15 -3 35 -11 44 -7 8 -11 22 -8 30 3 8
-1 20 -9 27 -9 7 -13 21 -11 30 3 10 -2 24 -10 30 -8 7 -12 21 -10 31 3 10 -2
25 -10 33 -8 9 -16 21 -17 28 -10 47 -22 74 -38 86 -12 8 -18 21 -15 32 3 11
-2 26 -10 34 -8 9 -12 22 -9 30 3 9 -1 15 -10 15 -11 0 -15 6 -11 20 3 10 -2
25 -10 31 -8 7 -12 21 -10 31 3 12 0 18 -10 18 -10 0 -14 6 -10 20 3 10 -2 25
-10 31 -8 7 -12 21 -10 31 3 12 0 18 -10 18 -11 0 -14 8 -11 30 3 22 0 30 -10
30 -9 0 -13 7 -9 20 3 14 0 20 -10 20 -10 0 -14 6 -10 20 3 14 0 20 -10 20
-10 0 -14 6 -10 20 3 11 -2 27 -10 35 -8 9 -12 22 -9 30 3 9 -1 15 -10 15 -11
0 -15 6 -11 20 3 14 0 20 -10 20 -11 0 -14 8 -11 30 3 22 0 30 -10 30 -9 0
-13 7 -9 20 3 13 0 20 -10 20 -9 0 -13 8 -11 20 2 10 -1 19 -6 19 -5 0 -14 10
-20 23 -6 13 -21 27 -34 33 -12 5 -22 18 -22 27 0 10 -4 18 -10 18 -5 0 -10 9
-10 20 0 11 -4 20 -10 20 -5 0 -10 9 -10 20 0 11 -4 20 -10 20 -5 0 -10 9 -10
20 0 11 -4 20 -10 20 -5 0 -10 14 -10 30 0 17 -4 30 -10 30 -5 0 -10 9 -10 20
0 11 -4 20 -10 20 -5 0 -10 14 -10 30 0 17 -4 30 -10 30 -5 0 -10 23 -10 50 0
28 -4 50 -10 50 -5 0 -10 7 -10 15 0 8 5 15 10 15 6 0 10 14 10 30 0 20 5 30
15 30 40 0 85 80 53 93 -7 3 8 6 35 6 26 1 47 -3 47 -9z m-2543 -416 c-3 -3
-12 -4 -19 -1 -8 3 -5 6 6 6 11 1 17 -2 13 -5z m-4337 -12970 c0 -8 -4 -12
-10 -9 -5 3 -10 10 -10 16 0 5 5 9 10 9 6 0 10 -7 10 -16z"/>
<path d="M11451 17303 c-1 -14 -9 -23 -23 -25 -21 -3 -20 -4 5 -9 32 -7 36 -3
26 31 -6 23 -7 23 -8 3z"/>
<path d="M11381 17244 c-7 -8 -11 -17 -9 -20 3 -2 13 5 23 16 10 11 14 20 9
20 -5 -1 -15 -8 -23 -16z"/>
<path d="M11353 17145 c0 -44 2 -61 4 -37 2 23 2 59 0 80 -2 20 -4 1 -4 -43z"/>
<path d="M11370 17020 c0 -5 5 -10 11 -10 5 0 7 5 4 10 -3 6 -8 10 -11 10 -2
0 -4 -4 -4 -10z"/>
<path d="M5045 3690 c4 -6 11 -8 16 -5 14 9 11 15 -7 15 -8 0 -12 -5 -9 -10z"/>
<path d="M5010 3669 c0 -5 5 -7 10 -4 6 3 10 8 10 11 0 2 -4 4 -10 4 -5 0 -10
-5 -10 -11z"/>
<path d="M9469 16707 c26 -28 31 -32 31 -19 0 4 -13 16 -28 26 l-27 19 24 -26z"/>
<path d="M9540 16635 c13 -14 25 -25 27 -25 9 0 -33 49 -41 50 -5 0 1 -11 14
-25z"/>
<path d="M9585 16570 c3 -5 8 -10 11 -10 2 0 4 5 4 10 0 6 -5 10 -11 10 -5 0
-7 -4 -4 -10z"/>
<path d="M9609 16487 c-3 -21 -2 -40 2 -43 12 -7 15 9 9 46 l-6 35 -5 -38z"/>
<path d="M9645 16380 c-3 -5 -1 -10 4 -10 6 0 11 5 11 10 0 6 -2 10 -4 10 -3
0 -8 -4 -11 -10z"/>
<path d="M9625 16340 c-3 -5 -1 -10 4 -10 6 0 11 5 11 10 0 6 -2 10 -4 10 -3
0 -8 -4 -11 -10z"/>
<path d="M16710 6969 c-58 -10 -124 -18 -148 -18 -24 -1 -56 -8 -71 -16 -16
-8 -48 -17 -72 -21 -24 -4 -55 -12 -69 -19 -14 -7 -41 -15 -60 -19 -33 -6 -77
-21 -195 -68 -89 -36 -249 -112 -290 -138 -16 -11 -41 -26 -55 -33 -109 -54
-403 -279 -519 -397 -130 -132 -318 -383 -397 -529 -11 -19 -36 -66 -57 -105
-20 -39 -42 -75 -47 -80 -6 -6 -10 -16 -10 -24 0 -14 -25 -74 -57 -137 -9 -16
-21 -52 -28 -80 -7 -27 -18 -63 -24 -80 -29 -83 -43 -135 -52 -189 -5 -32 -15
-84 -23 -115 -28 -106 -40 -429 -27 -662 7 -117 19 -232 26 -257 8 -25 17 -70
21 -101 3 -31 11 -65 17 -76 6 -11 16 -42 23 -70 23 -90 78 -241 108 -300 9
-17 16 -38 16 -47 0 -9 4 -20 10 -23 5 -3 28 -43 50 -88 22 -45 50 -98 62
-117 12 -19 26 -44 32 -55 34 -59 158 -235 201 -284 167 -192 296 -315 420
-401 27 -19 55 -40 62 -46 25 -23 181 -123 248 -159 39 -20 77 -41 85 -46 8
-5 26 -13 40 -19 14 -5 32 -14 40 -18 53 -29 100 -52 110 -52 6 0 27 -7 48
-17 20 -9 55 -22 77 -28 22 -7 54 -18 70 -23 64 -24 143 -46 205 -58 36 -7 83
-17 105 -23 165 -42 800 -39 930 4 22 8 60 16 85 20 25 4 71 15 103 26 31 10
66 19 77 19 11 0 37 9 57 20 21 11 45 20 53 20 9 0 33 9 55 20 22 11 45 20 52
20 7 0 29 8 50 19 274 136 272 135 344 184 31 20 61 37 67 37 6 0 15 6 19 13
4 6 28 25 53 42 79 52 233 179 309 256 75 75 242 277 296 359 17 25 33 47 36
50 3 3 23 36 45 74 21 37 56 98 77 135 21 36 41 75 46 86 59 136 93 222 112
280 12 39 28 88 36 110 8 22 21 69 28 105 7 36 18 90 23 120 6 30 15 87 21
125 5 39 13 86 18 106 17 60 8 514 -11 584 -9 32 -16 77 -16 100 0 22 -9 72
-20 110 -11 38 -20 81 -20 95 -1 14 -8 43 -16 65 -9 22 -19 54 -24 70 -23 79
-107 295 -131 335 -5 8 -27 51 -49 95 -22 44 -49 94 -60 110 -11 17 -27 43
-36 60 -9 16 -23 35 -30 43 -8 7 -14 17 -14 22 0 4 -24 39 -54 77 -29 38 -57
77 -62 86 -27 48 -248 276 -345 356 -84 68 -285 212 -334 237 -16 9 -52 28
-80 44 -77 43 -231 120 -240 120 -4 0 -26 8 -49 19 -23 10 -56 23 -73 30 -77
27 -91 31 -138 46 -27 9 -75 22 -105 30 -30 7 -73 18 -95 24 -193 48 -666 65
-865 30z m439 -580 c9 5 23 6 30 2 15 -10 61 -2 61 11 0 5 10 0 22 -12 24 -22
54 -26 60 -8 3 9 12 9 38 -2 19 -8 50 -13 71 -11 20 1 71 -9 114 -24 43 -14
84 -24 92 -21 7 3 13 -1 13 -8 0 -9 7 -12 21 -9 20 6 67 -13 81 -32 4 -5 8 -7
8 -2 0 9 184 -82 188 -94 2 -5 9 -9 16 -9 21 0 77 -31 83 -46 3 -8 14 -14 24
-14 10 0 24 -9 31 -20 7 -11 20 -20 29 -20 9 0 27 -13 40 -30 13 -16 31 -30
38 -30 8 0 36 -22 62 -50 26 -27 52 -50 59 -50 15 0 170 -154 170 -169 0 -5
25 -33 55 -62 30 -29 55 -59 55 -66 0 -8 14 -26 30 -40 17 -13 30 -32 30 -40
0 -9 8 -23 18 -32 31 -29 64 -82 58 -96 -2 -7 4 -15 15 -18 19 -5 44 -51 40
-74 -2 -15 35 -91 56 -115 9 -10 13 -28 11 -43 -3 -14 -1 -25 6 -25 6 0 12
-17 13 -37 1 -20 5 -39 10 -42 15 -11 35 -59 29 -69 -3 -5 1 -16 10 -23 9 -8
13 -21 10 -35 -4 -13 1 -44 10 -69 8 -26 13 -49 10 -53 -3 -3 1 -13 9 -22 14
-15 14 -19 1 -30 -14 -11 -14 -15 -1 -41 9 -16 15 -41 15 -56 -1 -16 4 -49 11
-75 10 -40 10 -49 -3 -62 -14 -13 -14 -20 -2 -53 17 -49 18 -98 0 -112 -8 -6
-11 -22 -8 -37 3 -15 -1 -29 -8 -34 -9 -6 -12 -31 -11 -82 1 -55 -2 -78 -12
-87 -8 -6 -13 -19 -10 -29 2 -9 -7 -32 -20 -50 -15 -20 -23 -41 -20 -53 3 -10
-1 -34 -8 -52 -8 -17 -12 -40 -10 -51 3 -19 -50 -133 -81 -175 -10 -13 -18
-32 -18 -42 0 -11 -4 -19 -9 -19 -5 0 -16 -15 -24 -33 -9 -18 -25 -41 -36 -51
-11 -10 -18 -23 -15 -27 3 -5 0 -9 -5 -9 -6 0 -11 -9 -11 -19 0 -19 -15 -35
-35 -36 -5 -1 -9 -6 -7 -13 1 -7 -2 -12 -8 -12 -5 0 -10 -6 -10 -13 0 -18 -24
-67 -32 -67 -5 0 -8 -8 -8 -18 0 -23 -19 -42 -42 -42 -10 0 -18 -7 -18 -17 0
-19 -179 -202 -198 -203 -7 0 -16 -8 -19 -17 -10 -25 -30 -44 -45 -42 -27 3
-38 -2 -38 -17 0 -21 -25 -44 -48 -44 -10 0 -46 -27 -80 -60 -33 -33 -67 -60
-75 -60 -8 0 -26 -9 -40 -20 -14 -11 -31 -20 -37 -20 -7 0 -33 -10 -59 -23
-25 -13 -58 -27 -73 -30 -16 -4 -28 -12 -28 -17 0 -6 -9 -10 -20 -10 -11 0
-20 -5 -20 -11 0 -6 -13 -9 -29 -7 -16 1 -35 -2 -42 -8 -38 -28 -98 -47 -158
-49 -24 -1 -46 -6 -50 -11 -3 -5 -19 -16 -35 -24 -23 -12 -30 -12 -33 -2 -6
15 -33 16 -33 2 0 -6 -15 -11 -32 -11 -18 0 -55 -2 -83 -5 -27 -2 -62 -4 -77
-5 -16 0 -44 0 -63 0 -104 -1 -124 -1 -165 4 -25 3 -76 6 -113 6 -38 0 -74 4
-80 9 -16 13 -98 36 -116 33 -8 -1 -17 3 -22 10 -5 8 -25 12 -52 11 -29 -2
-48 2 -56 12 -7 8 -19 12 -26 9 -8 -3 -21 2 -30 10 -8 8 -24 13 -35 10 -11 -3
-20 0 -20 6 0 6 -8 11 -19 11 -10 0 -24 7 -31 15 -7 8 -21 15 -31 15 -9 0 -24
7 -33 15 -8 8 -19 15 -24 15 -15 0 -135 63 -156 83 -11 9 -26 17 -33 17 -7 0
-18 9 -25 20 -7 11 -20 20 -29 20 -18 0 -53 35 -63 64 -4 11 -12 16 -22 12 -9
-3 -25 4 -40 19 -14 14 -31 25 -39 25 -8 0 -15 9 -15 20 0 13 -7 20 -20 20
-13 0 -20 7 -20 20 0 13 -7 20 -19 20 -11 0 -23 9 -26 20 -3 11 -13 20 -21 20
-8 0 -14 9 -14 20 0 13 -7 20 -20 20 -11 0 -20 7 -20 15 0 8 -22 36 -48 62
-46 45 -67 78 -64 96 1 4 -5 7 -13 7 -8 0 -15 9 -15 20 0 11 -4 20 -10 20 -5
0 -10 9 -10 19 0 11 -9 23 -21 26 -11 4 -24 18 -29 31 -5 13 -14 24 -20 24 -5
0 -10 9 -10 19 0 11 -3 21 -8 23 -14 6 -74 136 -67 147 3 6 -1 11 -10 11 -10
0 -15 7 -13 18 2 11 -2 25 -9 33 -6 8 -13 26 -15 41 -2 14 -9 32 -15 39 -23
30 -44 89 -42 117 2 16 -2 36 -9 45 -7 9 -12 21 -11 29 1 7 -2 31 -8 53 -7 22
-12 59 -12 83 0 24 -6 50 -13 59 -19 23 -28 320 -14 458 3 28 5 60 6 71 0 12
7 27 14 33 8 7 12 21 9 31 -3 11 -1 20 4 20 5 0 10 20 10 45 0 28 6 52 17 63
14 16 14 21 2 31 -11 9 -11 17 -2 36 6 14 14 25 19 25 4 0 7 9 7 20 0 11 5 20
11 20 5 0 9 8 8 18 -4 39 2 62 15 62 9 0 12 8 9 24 -5 24 19 66 65 114 12 13
20 28 16 33 -9 15 21 72 55 102 18 16 28 33 25 41 -3 8 4 25 15 37 12 13 21
28 21 35 0 7 14 24 30 37 17 14 30 32 30 40 0 9 14 27 30 40 17 14 30 32 30
40 0 8 13 25 30 38 16 13 30 31 30 40 0 19 20 39 40 39 8 0 21 9 28 20 7 11
21 20 31 20 12 0 25 12 33 30 7 17 20 30 28 30 8 0 21 9 28 20 7 11 21 20 32
20 13 0 20 7 20 20 0 11 7 20 16 20 8 0 27 14 41 30 13 17 33 30 44 30 10 0
19 5 19 10 0 6 9 10 20 10 12 0 20 7 20 18 0 16 40 42 66 42 7 0 19 8 26 18 7
10 52 31 100 46 48 15 93 35 99 43 7 8 21 12 32 9 12 -3 28 4 44 20 14 14 35
24 51 23 41 -1 64 6 77 24 8 11 26 17 49 17 20 0 36 5 36 10 0 6 19 11 43 11
84 1 122 5 146 18 14 8 40 11 70 7 80 -9 176 -6 181 7 2 7 6 5 8 -5 3 -14 8
-16 21 -9z"/>
<path d="M16690 6356 c0 -9 30 -14 35 -6 4 6 -3 10 -14 10 -12 0 -21 -2 -21
-4z"/>
<path d="M1307 6946 c-3 -8 -2 -18 3 -21 13 -8 20 9 11 24 -6 10 -10 9 -14 -3z"/>
<path d="M1110 5660 c0 -5 5 -10 11 -10 5 0 7 5 4 10 -3 6 -8 10 -11 10 -2 0
-4 -4 -4 -10z"/>
<path d="M1110 5500 c0 -5 5 -10 11 -10 5 0 7 5 4 10 -3 6 -8 10 -11 10 -2 0
-4 -4 -4 -10z"/>
<path d="M1254 4518 c9 -70 29 -92 29 -33 0 56 -5 74 -19 79 -15 6 -16 0 -10
-46z"/>
<path d="M1305 4437 c-9 -23 -1 -93 10 -87 10 5 12 86 2 97 -4 3 -9 -1 -12
-10z"/>
<path d="M1340 4293 c0 -10 5 -25 10 -33 7 -11 10 -7 10 18 0 17 -4 32 -10 32
-5 0 -10 -8 -10 -17z"/>
<path d="M1380 4186 c0 -8 5 -18 10 -21 6 -3 10 3 10 14 0 12 -4 21 -10 21 -5
0 -10 -6 -10 -14z"/>
<path d="M1426 4085 c4 -8 8 -15 10 -15 2 0 4 7 4 15 0 8 -4 15 -10 15 -5 0
-7 -7 -4 -15z"/>
<path d="M1463 4018 c1 -15 6 -30 10 -34 11 -11 8 29 -3 46 -8 12 -10 9 -7
-12z"/>
<path d="M1540 3881 c0 -11 5 -23 10 -26 6 -3 10 3 10 14 0 11 -4 23 -10 26
-5 3 -10 -3 -10 -14z"/>
<path d="M1580 3790 c0 -5 5 -10 11 -10 5 0 7 5 4 10 -3 6 -8 10 -11 10 -2 0
-4 -4 -4 -10z"/>
<path d="M1705 3590 c3 -5 8 -10 11 -10 2 0 4 5 4 10 0 6 -5 10 -11 10 -5 0
-7 -4 -4 -10z"/>
</g>
</svg>
