<?xml version="1.0" encoding="UTF-8" standalone="no"?>
<svg
   width="500"
   zoomAndPan="magnify"
   viewBox="0 0 375 374.999991"
   height="500"
   preserveAspectRatio="xMidYMid meet"
   version="1.0"
   id="svg355"
   sodipodi:docname="Adrian (2).svg"
   inkscape:version="1.2.1 (9c6d41e4, 2022-07-14)"
   xmlns:inkscape="http://www.inkscape.org/namespaces/inkscape"
   xmlns:sodipodi="http://sodipodi.sourceforge.net/DTD/sodipodi-0.dtd"
   xmlns="http://www.w3.org/2000/svg"
   xmlns:svg="http://www.w3.org/2000/svg">
  <sodipodi
     id="namedview357"
     pagecolor="#505050"
     bordercolor="#eeeeee"
     borderopacity="1"
     inkscape:showpageshadow="0"
     inkscape:pageopacity="0"
     inkscape:pagecheckerboard="0"
     inkscape:deskcolor="#505050"
     showgrid="false"
     inkscape:zoom="0.472"
     inkscape:cx="186.44068"
     inkscape:cy="257.41525"
     inkscape:window-width="1499"
     inkscape:window-height="937"
     inkscape:window-x="0"
     inkscape:window-y="0"
     inkscape:window-maximized="0"
     inkscape:current-layer="svg355" />
  <defs
     id="defs329">
    <g
       id="g327" />
  </defs>
  <g
     id="g371">
    <path
       d="M 354.01923,331.7528 254.57001,62.20592 C 250.51923,52.7528 246.01923,48.2528 236.12079,48.2528 h -43.20312 c -9.89844,0 -14.84766,4.5 -18.44922,13.95312 L 74.570008,331.7528 c -2.25,5.40234 -2.25,12.60156 7.648438,12.60156 h 47.250004 c 9.90234,0 13.5,-2.69922 17.10156,-13.5 l 12.59765,-35.55078 h 110.25001 l 12.60156,35.55078 c 3.60156,10.80078 7.19922,13.5 17.10156,13.5 h 47.25 c 9.89844,0 9.89844,-7.19922 7.64844,-12.60156 z m -139.5,-198.89844 33.75,99.44922 h -67.5 z m 0,0"
       id="path339"
       style="fill:#737373;fill-opacity:0.502" />
    <path
       d="M 332.47423,313.6744 233.02501,44.12752 C 228.97423,34.6744 224.47423,30.1744 214.57579,30.1744 h -43.20312 c -9.89844,0 -14.84766,4.5 -18.44922,13.95312 L 53.02501,313.6744 c -2.25,5.40234 -2.25,12.60156 7.648438,12.60156 h 47.250002 c 9.90234,0 13.5,-2.69922 17.10156,-13.5 l 12.59766,-35.55078 h 110.25 l 12.60156,35.55078 c 3.60156,10.80078 7.19922,13.5 17.10156,13.5 h 47.25 c 9.89844,0 9.89844,-7.19922 7.64844,-12.60156 z m -139.5,-198.89844 33.75,99.44922 h -67.5 z m 0,0"
       id="path347"
       style="fill:#737373;fill-opacity:1" />
    <path
       d="M 375.56423,349.83121 276.11501,80.28433 c -4.05078,-9.45312 -8.55078,-13.95312 -18.44922,-13.95312 h -43.20312 c -9.89844,0 -14.84766,4.5 -18.44922,13.95312 L 96.115008,349.83121 c -2.25,5.40234 -2.25,12.60156 7.648442,12.60156 h 47.25 c 9.90234,0 13.5,-2.69922 17.10156,-13.5 l 12.59766,-35.55078 h 110.25 l 12.60156,35.55078 c 3.60156,10.80078 7.19922,13.5 17.10156,13.5 h 47.25 c 9.89844,0 9.89844,-7.19922 7.64844,-12.60156 z m -139.5,-198.89844 33.75,99.44922 h -67.5 z m 0,0"
       id="path331"
       style="fill:#737373;fill-opacity:0.302" />
  </g>
</svg>
