<?xml version="1.0" encoding="utf-8"?>
<!-- Generator: Adobe Adobe Illustrator 24.2.0, SVG Export Plug-In . SVG Version: 6.00 Build 0)  -->
<svg version="1.1" id="Layer_1" xmlns="http://www.w3.org/2000/svg" xmlns:xlink="http://www.w3.org/1999/xlink" x="0px" y="0px"
	 width="500px" height="500px" viewBox="0 0 500 500" style="enable-background:new 0 0 500 500;" xml:space="preserve">
<style type="text/css">
	.st0{fill:#FFFFFF;}
	.st1{fill-rule:evenodd;clip-rule:evenodd;fill:#8C92AC;}
	.st2{fill-rule:evenodd;clip-rule:evenodd;fill:#104059;}
	.st3{clip-path:url(#SVGID_2_);}
	.st4{clip-path:url(#SVGID_4_);}
	.st5{fill:url(#SVGID_5_);}
	.st6{clip-path:url(#SVGID_7_);}
	.st7{clip-path:url(#SVGID_9_);}
	.st8{fill:url(#SVGID_10_);}
	.st9{clip-path:url(#SVGID_12_);}
	.st10{clip-path:url(#SVGID_14_);}
	.st11{fill:url(#SVGID_15_);}
</style>
<rect x="-50" y="-50" class="st0" width="600" height="600"/>
<rect x="-50" y="-50" class="st0" width="600" height="600"/>
<rect x="-50" y="-50" class="st0" width="600" height="600"/>
<path class="st1" d="M247.3,71.7c18.4,10.6,30.2,28.4,34.1,47.8c10,12.4,11.9,30.1,3.5,44.6l0.5-0.9c20.6-35.7,8.2-81.7-27.4-102.3
	c-34.2-19.8-78-9.2-99.6,23.2c-0.9,1.4-1.7,2.8-2.6,4.2c-0.2,0.4-0.4,0.7-0.5,1l-4.9,8.4C169.9,63.9,213.5,52.2,247.3,71.7z"/>
<path class="st2" d="M133.9,425.1c-16.7-9.6-28-25.2-32.7-42.5C89.1,370.2,86,350.7,95.1,335l18.3-31.7c-0.2-0.1-0.3-0.2-0.5-0.3
	l-18.3,31.8c-20.6,35.7-8.2,81.7,27.5,102.3c35.6,20.5,81.6,8.2,102.2-27.5l6-10.3C210.9,432.8,167.5,444.5,133.9,425.1z"/>
<g>
	<defs>
		<rect id="SVGID_1_" x="18.7" y="61.3" width="264" height="404"/>
	</defs>
	<clipPath id="SVGID_2_">
		<use xlink:href="#SVGID_1_"  style="overflow:visible;"/>
	</clipPath>
	<g class="st3">
		<g>
			<defs>
				<path id="SVGID_3_" d="M94.6,334.8L113,303l0.5,0.3l52.2-90.5l50.9-88.1c10.9-18.9,35.1-25.3,53.9-14.5c4.3,2.5,8,5.7,10.9,9.4
					c-3.8-19.5-15.7-37.2-34.1-47.8c-33.8-19.5-77.4-7.8-96.9,26L89.6,203.1l-55.7,96.6C3.5,352.1,21.6,419.9,74.2,450.3
					c52.5,30.3,120.2,12.1,150.5-40.4l6.6-11.5l-0.4-0.2l-0.7,1.1l-6,10.3c-20.6,35.7-66.6,48-102.2,27.5
					C86.4,416.5,74,370.5,94.6,334.8z"/>
			</defs>
			<clipPath id="SVGID_4_">
				<use xlink:href="#SVGID_3_"  style="overflow:visible;"/>
			</clipPath>
			<g class="st4">
				<linearGradient id="SVGID_5_" gradientUnits="userSpaceOnUse" x1="12.8873" y1="456.1707" x2="329.1515" y2="-7.0894">
					<stop  offset="0" style="stop-color:#8C92AC"/>
					<stop  offset="1" style="stop-color:#FF1A1A"/>
				</linearGradient>
				<path class="st5" d="M3.5,52.2v428.4h277.8V52.2H3.5z"/>
			</g>
		</g>
	</g>
</g>
<g>
	<defs>
		<rect id="SVGID_6_" x="100" y="33.3" width="346.7" height="401.3"/>
	</defs>
	<clipPath id="SVGID_7_">
		<use xlink:href="#SVGID_6_"  style="overflow:visible;"/>
	</clipPath>
	<g class="st6">
		<g>
			<defs>
				<path id="SVGID_8_" d="M290.5,294.9c0.2,0.1,0.3,0.2,0.5,0.3c6.8-11.8,13.6-23.5,20.4-35.3c31.4-54.4,95.1-45.6,134.9-4.2
					c-28.1-46.1-98.9-182.7-140.4-206.7C255,19.6,190,35.6,158.4,84.2c21.6-32.4,65.5-43,99.6-23.2c35.7,20.6,48,66.6,27.4,102.3
					l-0.5,0.9c-6,10.3-11.9,20.6-17.9,30.9c-1.1,1.7-2,3.5-3.1,5.3L219.2,278l-55.7,96.6c-10.9,18.8-35.1,25.3-53.9,14.4
					c-3.2-1.7-5.9-3.9-8.3-6.4c4.7,17.3,16,33,32.7,42.5c33.6,19.5,76.9,7.8,96.3-25.8l15.5-26.8l4.7-8.2
					c6.3-10.7,12.4-21.5,18.6-32.2c1.1-2,2.3-3.9,3.4-5.9C278.5,315.8,284.5,305.3,290.5,294.9z"/>
			</defs>
			<clipPath id="SVGID_9_">
				<use xlink:href="#SVGID_8_"  style="overflow:visible;"/>
			</clipPath>
			<g class="st7">
				<linearGradient id="SVGID_10_" gradientUnits="userSpaceOnUse" x1="116.742" y1="436.1297" x2="409.2492" y2="56.0188">
					<stop  offset="0" style="stop-color:#115173"/>
					<stop  offset="1" style="stop-color:#147EB8"/>
				</linearGradient>
				<path class="st8" d="M101.3,19.7v424.9h345V19.7H101.3z"/>
			</g>
		</g>
	</g>
</g>
<g>
	<defs>
		<rect id="SVGID_11_" x="364" y="326.7" width="132.5" height="132"/>
	</defs>
	<clipPath id="SVGID_12_">
		<use xlink:href="#SVGID_11_"  style="overflow:visible;"/>
	</clipPath>
	<g class="st9">
		<g>
			<defs>
				<path id="SVGID_13_" d="M496.5,392.5c0,2.2-0.1,4.3-0.3,6.4c-0.2,2.1-0.5,4.3-0.9,6.4c-0.4,2.1-0.9,4.2-1.6,6.3
					c-0.6,2.1-1.3,4.1-2.2,6.1c-0.8,2-1.7,3.9-2.8,5.8c-1,1.9-2.1,3.7-3.3,5.5c-1.2,1.8-2.5,3.5-3.8,5.2c-1.4,1.7-2.8,3.3-4.3,4.8
					c-1.5,1.5-3.1,3-4.8,4.3c-1.7,1.4-3.4,2.6-5.2,3.8c-1.8,1.2-3.6,2.3-5.5,3.3c-1.9,1-3.8,1.9-5.8,2.8c-2,0.8-4,1.5-6.1,2.2
					s-4.1,1.1-6.3,1.6c-2.1,0.4-4.2,0.7-6.4,0.9c-2.1,0.2-4.3,0.3-6.4,0.3c-2.2,0-4.3-0.1-6.4-0.3c-2.1-0.2-4.3-0.5-6.4-0.9
					c-2.1-0.4-4.2-0.9-6.2-1.6c-2.1-0.6-4.1-1.3-6.1-2.2c-2-0.8-3.9-1.7-5.8-2.8c-1.9-1-3.7-2.1-5.5-3.3c-1.8-1.2-3.5-2.5-5.2-3.8
					c-1.7-1.4-3.3-2.8-4.8-4.3c-1.5-1.5-3-3.1-4.3-4.8c-1.4-1.7-2.6-3.4-3.8-5.2c-1.2-1.8-2.3-3.6-3.3-5.5c-1-1.9-1.9-3.8-2.8-5.8
					c-0.8-2-1.5-4-2.2-6.1c-0.6-2.1-1.1-4.1-1.6-6.3c-0.4-2.1-0.7-4.2-0.9-6.4c-0.2-2.1-0.3-4.3-0.3-6.4c0-2.2,0.1-4.3,0.3-6.4
					c0.2-2.1,0.5-4.3,0.9-6.4c0.4-2.1,0.9-4.2,1.6-6.3c0.6-2.1,1.3-4.1,2.2-6.1c0.8-2,1.7-3.9,2.8-5.8s2.1-3.7,3.3-5.5
					c1.2-1.8,2.5-3.5,3.8-5.2c1.4-1.7,2.8-3.3,4.3-4.8c1.5-1.5,3.1-3,4.8-4.3c1.7-1.4,3.4-2.6,5.2-3.8c1.8-1.2,3.6-2.3,5.5-3.3
					c1.9-1,3.8-1.9,5.8-2.8c2-0.8,4-1.5,6.1-2.2c2.1-0.6,4.1-1.1,6.2-1.6c2.1-0.4,4.2-0.7,6.4-0.9c2.1-0.2,4.3-0.3,6.4-0.3
					c2.2,0,4.3,0.1,6.4,0.3c2.1,0.2,4.3,0.5,6.4,0.9c2.1,0.4,4.2,0.9,6.3,1.6s4.1,1.3,6.1,2.2c2,0.8,3.9,1.7,5.8,2.8
					c1.9,1,3.7,2.1,5.5,3.3c1.8,1.2,3.5,2.5,5.2,3.8c1.7,1.4,3.3,2.8,4.8,4.3c1.5,1.5,3,3.1,4.3,4.8c1.4,1.7,2.6,3.4,3.8,5.2
					c1.2,1.8,2.3,3.6,3.3,5.5s1.9,3.8,2.8,5.8c0.8,2,1.5,4,2.2,6.1c0.6,2.1,1.1,4.1,1.6,6.3c0.4,2.1,0.7,4.2,0.9,6.4
					C496.4,388.2,496.5,390.3,496.5,392.5z"/>
			</defs>
			<clipPath id="SVGID_14_">
				<use xlink:href="#SVGID_13_"  style="overflow:visible;"/>
			</clipPath>
			<g class="st10">
				<linearGradient id="SVGID_15_" gradientUnits="userSpaceOnUse" x1="387.1542" y1="442.2109" x2="472.4185" y2="345.1548">
					<stop  offset="0" style="stop-color:#134B69"/>
					<stop  offset="1" style="stop-color:#147EB8"/>
				</linearGradient>
				<path class="st11" d="M365.2,326.8v131.4h131.4V326.8H365.2z"/>
			</g>
		</g>
	</g>
</g>
</svg>
