<svg xmlns="http://www.w3.org/2000/svg" xmlns:xlink="http://www.w3.org/1999/xlink" width="500" zoomAndPan="magnify" viewBox="0 0 375 374.999991" height="500" preserveAspectRatio="xMidYMid meet" version="1.0"><path stroke-linecap="butt" transform="matrix(0.75, 0, 0, 0.75, 44.474229, -18.724014)" fill="none" stroke-linejoin="miter" d="M 383.935429 443.152881 L 251.367711 83.829941 C 245.945836 71.230982 239.940627 65.225773 226.758335 65.225773 L 169.190623 65.225773 C 156.00833 65.225773 149.41458 71.230982 144.581246 83.829941 L 11.424987 443.152881 C 8.352071 450.329965 8.352071 460.001841 21.534363 460.001841 L 84.669784 460.001841 C 97.852076 460.001841 102.539577 456.340382 107.37291 441.981006 L 124.216661 394.668503 L 271.143754 394.668503 L 287.987506 441.981006 C 292.820839 456.340382 297.654173 460.001841 310.841674 460.001841 L 373.826053 460.001841 C 387.013554 460.001841 387.013554 450.329965 383.935429 443.152881 Z M 198.044791 178.017447 L 243.018753 310.585164 L 152.930205 310.585164 Z M 198.044791 178.017447 " stroke="#737373" stroke-width="22.5" stroke-opacity="1" stroke-miterlimit="4"/></svg>